# This file uses centimeters as units for non-parametric coordinates.

mtllib BackFin_Top.mtl
g default
v -1.995273 -1.065617 0.495064
v -1.995273 -0.990646 0.187025
v -1.995273 -0.937578 0.000000
v -1.395273 -0.745955 0.439388
v -1.395273 -0.593455 0.170145
v -1.395273 -0.485509 0.000000
v -0.845273 -0.374727 0.267416
v -0.845273 -0.231516 0.080012
v -0.845273 -0.047311 0.000000
v 0.254726 -0.844727 0.209976
v 0.304727 -0.696396 0.010000
v 0.354728 -0.550170 0.000000
v 0.169846 0.399460 0.267416
v 0.169846 0.517099 0.080012
v 1.073427 0.013384 0.209976
v 1.114499 0.135229 0.073429
v 0.169846 0.668413 0.000000
v 1.155572 0.255345 0.000000
v 1.956054 1.604567 0.267416
v 1.956054 1.633981 0.080012
v 1.974733 1.162617 0.209976
v 1.985003 1.193083 0.073429
v 1.956054 1.671815 -0.001439
v 1.995273 1.223116 0.000000
v 0.198969 -1.235031 0.251406
v -0.845273 -0.885124 0.324277
v -1.395273 -1.015639 0.521080
v -1.995273 -1.198196 0.588527
v -1.995273 -1.065617 -0.495064
v -1.995273 -0.990646 -0.187025
v -1.395273 -0.745955 -0.439388
v -1.395273 -0.593455 -0.170145
v -0.845273 -0.374727 -0.267416
v -0.845273 -0.231516 -0.080012
v 0.254726 -0.844727 -0.209976
v 0.169846 0.399460 -0.267416
v 0.169846 0.517099 -0.080012
v 1.073427 0.013384 -0.209976
v 1.114499 0.135229 -0.073429
v 1.956054 1.604567 -0.267416
v 1.956054 1.633981 -0.080012
v 1.974733 1.162617 -0.209976
v 1.985003 1.193083 -0.073429
v 1.956054 1.671815 0.001439
v 0.198969 -1.235031 -0.251406
v -0.845273 -0.885124 -0.324277
v -1.395273 -1.015639 -0.521080
v -1.995273 -1.198196 -0.588527
v -1.995273 -1.346563 -0.693120
v -1.395273 -1.317438 -0.612501
v -0.845273 -1.456303 -0.387909
v 0.136572 -1.671815 -0.297770
v 0.136572 -1.671815 0.297770
v -0.845273 -1.456303 0.387909
v -1.395273 -1.317438 0.612501
v -1.995273 -1.346563 0.693120
vt 0.955067 0.551167
vt 0.960872 0.540649
vt 0.985759 0.569748
vt 0.977903 0.586770
vt 0.951301 0.558233
vt 0.972569 0.598569
vt 1.004733 0.604941
vt 0.998079 0.620126
vt 0.991302 0.637687
vt 1.105216 0.786383
vt 1.108230 0.781442
vt 1.122844 0.742351
vt 1.120970 0.746758
vt 1.103105 0.790786
vt 1.119809 0.750354
vt 1.040416 0.674026
vt 1.034580 0.686909
vt 1.084633 0.562680
vt 1.105935 0.639437
vt 1.080654 0.578450
vt 1.102973 0.652052
vt 1.028855 0.701509
vt 1.078843 0.591706
vt 1.100764 0.663738
vt 1.021688 0.558301
vt 1.094256 0.527073
vt 0.995289 0.544472
vt 0.966147 0.527571
vt -0.426585 -0.552644
vt -0.469188 -0.523739
vt -0.469830 -0.541339
vt -0.428369 -0.563569
vt -0.425581 -0.545312
vt -0.468904 -0.511545
vt -0.507594 -0.496475
vt -0.507650 -0.512156
vt -0.508868 -0.478389
vt -0.707278 -0.361514
vt -0.704433 -0.402632
vt -0.704594 -0.407081
vt -0.708534 -0.366662
vt -0.706996 -0.356958
vt -0.704796 -0.399040
vt -0.580719 -0.440848
vt -0.581045 -0.454162
vt -0.634556 -0.501325
vt -0.572897 -0.569733
vt -0.637339 -0.488832
vt -0.575836 -0.553830
vt -0.581646 -0.425806
vt -0.640632 -0.477317
vt -0.580675 -0.541097
vt -0.565545 -0.605648
vt -0.502742 -0.560138
vt -0.467669 -0.567359
vt -0.427752 -0.577051
vt 1.088694 0.533225
vt 1.079988 0.567819
vt -0.465250 -0.596479
vt -0.427061 -0.592138
vt -0.497250 -0.613834
vt -0.557316 -0.645840
vt 1.105024 0.487224
vt 1.098437 0.494512
vt 1.040663 0.506106
vt 1.005954 0.516186
vt 0.972050 0.512936
vn -0.444140 0.870546 0.211873
vn -0.481566 0.790458 0.378510
vn -0.458476 0.847123 0.268668
vn -0.490023 0.758493 0.429611
vn -0.532531 0.814266 0.231044
vn -0.538099 0.729119 0.422888
vn -0.535356 0.801111 0.267610
vn -0.536784 0.712434 0.451996
vn -0.397503 0.798423 0.452230
vn -0.392550 0.750904 0.531082
vn -0.396785 0.789487 0.468265
vn -0.389869 0.731685 0.559142
vn -0.423789 0.764822 0.485233
vn -0.326539 0.444292 0.834252
vn -0.415243 0.726840 0.547062
vn -0.302541 0.379733 0.874227
vn 0.997809 0.065361 0.010259
vn 0.997961 0.060167 0.021300
vn 0.997288 0.041512 0.060775
vn 0.996141 0.031454 0.081941
vn 0.995374 0.087131 0.040473
vn 0.995086 0.085143 0.050543
vn 0.986576 0.065003 0.149805
vn 0.984637 0.062220 0.163151
vn -0.518248 0.679531 0.519285
vn -0.528747 0.714636 0.457955
vn -0.519360 0.683017 0.513569
vn -0.529757 0.718346 0.450928
vn 0.033417 -0.043817 0.998481
vn 0.037888 -0.043505 0.998335
vn 0.038979 -0.043429 0.998296
vn 0.045072 -0.043002 0.998058
vn 0.686852 -0.655307 -0.314337
vn 0.686625 -0.654382 -0.316749
vn 0.682163 -0.638294 -0.356699
vn 0.681410 -0.635862 -0.362436
vn -0.281893 0.382245 0.880014
vn -0.310649 0.439216 0.842963
vn -0.283548 0.385500 0.878060
vn -0.313022 0.443962 0.839592
vn 0.220947 -0.141542 -0.964960
vn 0.237928 -0.161131 -0.957824
vn 0.560748 -0.555850 -0.613672
vn 0.565516 -0.562237 -0.603391
vn -0.496133 0.735369 0.461611
vn -0.525548 0.836497 0.155150
vn -0.498615 0.741677 0.448663
vn -0.525537 0.840481 0.131919
vn 0.038827 -0.057549 0.997587
vn 0.041454 -0.059000 0.997397
vn 0.064345 -0.071623 0.995354
vn 0.154197 -0.120932 0.980611
vn 0.750733 -0.588776 -0.299570
vn 0.752211 -0.591140 -0.291088
vn 0.769408 -0.631233 -0.097761
vn 0.769480 -0.633201 -0.083404
vn -0.280551 0.448680 0.848515
vn -0.447145 0.792865 0.414037
vn -0.283311 0.454102 0.844705
vn -0.453710 0.808211 0.375423
vn 0.659935 -0.543058 -0.519205
vn 0.662504 -0.545816 -0.513004
vn 0.744119 -0.644375 -0.176259
vn 0.745545 -0.646885 -0.160323
vn 0.098720 0.110180 0.988997
vn 0.101846 0.108467 0.988869
vn 0.099357 0.096653 0.990347
vn 0.105002 0.094544 0.989968
vn 0.330524 0.201566 0.922022
vn 0.273276 0.121432 0.954240
vn 0.247345 0.191968 0.949720
vn 0.229712 0.107759 0.967275
vn 0.010751 0.506459 0.862197
vn -0.029076 0.303873 0.952269
vn -0.078474 0.490229 0.868054
vn -0.065506 0.289286 0.954999
vn -0.490023 0.758493 -0.429611
vn -0.481566 0.790458 -0.378510
vn -0.458476 0.847123 -0.268668
vn -0.444140 0.870546 -0.211873
vn -0.536784 0.712434 -0.451996
vn -0.538099 0.729119 -0.422888
vn -0.535356 0.801111 -0.267610
vn -0.532531 0.814266 -0.231044
vn -0.389869 0.731685 -0.559142
vn -0.392550 0.750904 -0.531082
vn -0.396785 0.789487 -0.468265
vn -0.397503 0.798423 -0.452230
vn -0.302541 0.379732 -0.874227
vn -0.326539 0.444291 -0.834253
vn -0.415243 0.726840 -0.547062
vn -0.423788 0.764823 -0.485232
vn 0.997809 0.065360 -0.010259
vn 0.997288 0.041510 -0.060775
vn 0.997961 0.060166 -0.021300
vn 0.996141 0.031452 -0.081941
vn 0.995375 0.087129 -0.040473
vn 0.986576 0.065001 -0.149805
vn 0.995086 0.085141 -0.050543
vn 0.984637 0.062218 -0.163151
vn -0.529757 0.718346 -0.450928
vn -0.528747 0.714636 -0.457955
vn -0.519360 0.683017 -0.513569
vn -0.518248 0.679531 -0.519285
vn 0.033417 -0.043817 -0.998481
vn 0.038979 -0.043429 -0.998296
vn 0.037888 -0.043505 -0.998335
vn 0.045072 -0.043002 -0.998058
vn 0.692817 -0.661001 0.288240
vn 0.687753 -0.636856 0.348439
vn 0.692612 -0.659729 0.291626
vn 0.686661 -0.632699 0.358035
vn -0.313022 0.443962 -0.839592
vn -0.310649 0.439216 -0.842963
vn -0.283548 0.385500 -0.878060
vn -0.281893 0.382245 -0.880014
vn 0.050415 0.050973 0.997427
vn 0.559707 -0.554461 0.615874
vn 0.074479 0.024245 0.996928
vn 0.565516 -0.562237 0.603391
vn -0.525537 0.840481 -0.131919
vn -0.525548 0.836497 -0.155150
vn -0.498615 0.741677 -0.448663
vn -0.496133 0.735369 -0.461611
vn 0.038827 -0.057549 -0.997587
vn 0.064345 -0.071623 -0.995354
vn 0.041454 -0.059000 -0.997397
vn 0.154197 -0.120932 -0.980611
vn 0.750733 -0.588776 0.299570
vn 0.769408 -0.631233 0.097761
vn 0.752211 -0.591140 0.291089
vn 0.769480 -0.633201 0.083403
vn -0.453711 0.808210 -0.375424
vn -0.447145 0.792865 -0.414037
vn -0.283311 0.454102 -0.844705
vn -0.280551 0.448680 -0.848515
vn 0.659935 -0.543058 0.519205
vn 0.744120 -0.644374 0.176260
vn 0.662504 -0.545816 0.513004
vn 0.745546 -0.646883 0.160324
vn 0.098720 0.110180 -0.988997
vn 0.099357 0.096653 -0.990347
vn 0.101846 0.108467 -0.988869
vn 0.105002 0.094544 -0.989968
vn 0.229711 0.107759 -0.967275
vn 0.273276 0.121432 -0.954240
vn 0.247345 0.191968 -0.949720
vn 0.330524 0.201566 -0.922022
vn -0.065506 0.289286 -0.954999
vn -0.029076 0.303872 -0.952269
vn -0.078474 0.490229 -0.868054
vn 0.010751 0.506458 -0.862197
vn 0.989950 -0.141416 0.000000
vn 0.989950 -0.141419 0.000000
vn 0.989950 -0.141419 0.000000
vn 0.989950 -0.141421 0.000000
vn 0.947612 -0.319423 0.000000
vn 0.947612 -0.319423 0.000000
vn 0.947612 -0.319423 0.000000
vn 0.026464 0.323336 -0.945914
vn 0.081579 0.574260 -0.814598
vn 0.337446 0.139848 -0.930899
vn 0.420905 0.262977 -0.868149
vn 0.106731 0.106178 -0.988603
vn 0.110474 0.089290 -0.989860
vn 0.989949 -0.141424 0.000000
vn 0.989950 -0.141421 0.000000
vn 0.989950 -0.141420 0.000000
vn 0.989950 -0.141418 0.000000
vn 0.106731 0.106178 0.988603
vn 0.110474 0.089290 0.989860
vn 0.420905 0.262977 0.868149
vn 0.337446 0.139848 0.930899
vn 0.081579 0.574260 0.814598
vn 0.026464 0.323337 0.945914
s 1
g polySurface8 pCylinder5
usemtl blinn2SG
f 1/2/1 4/3/2 2/1/3
f 2/1/3 4/3/2 5/4/4
s 2
f 2/1/5 5/4/6 3/5/7
f 3/5/7 5/4/6 6/6/8
s 3
f 4/3/9 7/7/10 5/4/11
f 5/4/11 7/7/10 8/8/12
s 4
f 5/4/13 8/8/14 6/6/15
f 6/6/15 8/8/14 9/9/16
s 5
f 20/10/17 19/11/18 22/13/19
f 22/13/19 19/11/18 21/12/20
s 6
f 23/14/21 20/10/22 24/15/23
f 24/15/23 20/10/22 22/13/24
s 7
f 7/7/25 13/16/26 8/8/27
f 8/8/27 13/16/26 14/17/28
s 8
f 7/7/29 10/18/30 13/16/31
f 13/16/31 10/18/30 15/19/32
s 9
f 10/18/33 11/20/34 15/19/35
f 15/19/35 11/20/34 16/21/36
s 10
f 8/8/37 14/17/38 9/9/39
f 9/9/39 14/17/38 17/22/40
s 11
f 11/20/41 12/23/42 16/21/43
f 16/21/43 12/23/42 18/24/44
s 12
f 13/16/45 19/11/46 14/17/47
f 14/17/47 19/11/46 20/10/48
s 13
f 13/16/49 15/19/50 19/11/51
f 19/11/51 15/19/50 21/12/52
s 14
f 15/19/53 16/21/54 21/12/55
f 21/12/55 16/21/54 22/13/56
s 15
f 14/17/57 20/10/58 17/22/59
f 17/22/59 20/10/58 23/14/60
s 16
f 16/21/61 18/24/62 22/13/63
f 22/13/63 18/24/62 24/15/64
s 17
f 7/7/65 26/25/66 10/18/67
f 10/18/67 26/25/66 25/26/68
s 18
f 27/27/69 26/25/70 4/3/71
f 4/3/71 26/25/70 7/7/72
s 19
f 28/28/73 27/27/74 1/2/75
f 1/2/75 27/27/74 4/3/76
s 20
f 32/30/77 31/31/78 30/29/79
f 30/29/79 31/31/78 29/32/80
s 21
f 6/34/81 32/30/82 3/33/83
f 3/33/83 32/30/82 30/29/84
s 22
f 34/35/85 33/36/86 32/30/87
f 32/30/87 33/36/86 31/31/88
s 23
f 9/37/89 34/35/90 6/34/91
f 6/34/91 34/35/90 32/30/92
s 24
f 41/38/93 43/39/94 40/41/95
f 40/41/95 43/39/94 42/40/96
s 25
f 44/42/97 24/43/98 41/38/99
f 41/38/99 24/43/98 43/39/100
s 26
f 37/44/101 36/45/102 34/35/103
f 34/35/103 36/45/102 33/36/104
s 27
f 33/36/105 36/45/106 35/47/107
f 35/47/107 36/45/106 38/46/108
s 28
f 35/47/109 38/46/110 11/49/111
f 11/49/111 38/46/110 39/48/112
s 29
f 17/50/113 37/44/114 9/37/115
f 9/37/115 37/44/114 34/35/116
s 30
f 11/49/117 39/48/118 12/52/119
f 12/52/119 39/48/118 18/51/120
s 31
f 41/38/121 40/41/122 37/44/123
f 37/44/123 40/41/122 36/45/124
s 32
f 36/45/125 40/41/126 38/46/127
f 38/46/127 40/41/126 42/40/128
s 33
f 38/46/129 42/40/130 39/48/131
f 39/48/131 42/40/130 43/39/132
s 34
f 44/42/133 41/38/134 17/50/135
f 17/50/135 41/38/134 37/44/136
s 35
f 39/48/137 43/39/138 18/51/139
f 18/51/139 43/39/138 24/43/140
s 36
f 33/36/141 35/47/142 46/54/143
f 46/54/143 35/47/142 45/53/144
s 37
f 33/36/145 46/54/146 31/31/147
f 31/31/147 46/54/146 47/55/148
s 38
f 31/31/149 47/55/150 29/32/151
f 29/32/151 47/55/150 48/56/152
s 39
f 10/18/153 25/26/154 35/58/155
f 35/58/155 25/26/154 45/57/156
s off
f 11/20/157 10/18/158 35/58/159
s 38
f 47/55/150 50/59/160 48/56/152
f 48/56/152 50/59/160 49/60/161
s 37
f 46/54/146 51/61/162 47/55/148
f 47/55/148 51/61/162 50/59/163
s 36
f 46/54/143 45/53/144 51/61/164
f 51/61/164 45/53/144 52/62/165
s 40
f 25/26/166 53/63/167 45/57/168
f 45/57/168 53/63/167 52/64/169
s 17
f 26/25/66 54/65/170 25/26/68
f 25/26/68 54/65/170 53/63/171
s 18
f 55/66/172 54/65/173 27/27/69
f 27/27/69 54/65/173 26/25/70
s 19
f 56/67/174 55/66/175 28/28/73
f 28/28/73 55/66/175 27/27/74
