# This file uses centimeters as units for non-parametric coordinates.

mtllib Body_Mid.mtl
g default
v -2.487368 -1.906031 0.000000
v 0.233206 1.645544 0.000000
v 0.233206 -1.260732 0.000000
v -2.487368 -1.308965 1.424707
v -2.487368 0.132482 2.031408
v -2.487368 1.573928 1.424707
v 0.233206 -0.835117 1.124186
v 0.233206 0.192406 1.606408
v 0.233206 1.219930 1.124186
v 0.233206 1.469141 0.442518
v -2.487368 1.923530 0.567074
v 0.233206 -1.077258 0.461858
v -2.487368 -1.648648 0.591407
v -1.404292 1.961810 0.000000
v -1.404292 1.742635 0.517487
v -1.404292 1.432999 1.305068
v -1.404292 0.156338 1.862213
v -1.404292 -1.120323 1.305068
v -1.404292 -1.421174 0.539833
v -1.404292 -1.649134 0.000000
v 2.057965 1.214262 0.000000
v 2.057965 1.082078 0.355698
v 2.057965 0.895337 0.914713
v 2.057965 0.125384 1.310168
v 2.057965 -0.644569 0.914713
v 2.057965 -0.826011 0.371558
v 2.057965 -0.963494 0.000000
v 1.774323 -1.749996 1.693384
v 1.550942 -1.809385 1.699771
v 1.774323 -1.707106 1.731800
v 1.550942 -1.752148 1.746615
v 2.057965 0.565100 1.084326
v 0.233206 0.779220 1.331013
v -1.404292 0.885433 1.544030
v -2.487368 0.955685 1.684924
v -2.487368 -1.308965 -1.424707
v -2.487368 0.132482 -2.031408
v -2.487368 1.573928 -1.424707
v 0.233206 -0.835117 -1.124186
v 0.233206 0.192406 -1.606408
v 0.233206 1.219930 -1.124186
v 0.233206 1.469141 -0.442518
v -2.487368 1.923530 -0.567074
v 0.233206 -1.077258 -0.461858
v -2.487368 -1.648648 -0.591407
v -1.404292 1.742635 -0.517487
v -1.404292 1.432999 -1.305068
v -1.404292 0.156338 -1.862213
v -1.404292 -1.120323 -1.305068
v -1.404292 -1.421174 -0.539833
v 2.057965 1.082078 -0.355698
v 2.057965 0.895337 -0.914713
v 2.057965 0.125384 -1.310168
v 2.057965 -0.644569 -0.914713
v 2.057965 -0.826011 -0.371558
v 1.774323 -1.749996 -1.693384
v 1.550942 -1.809385 -1.699771
v 1.774323 -1.707106 -1.731800
v 1.550942 -1.752148 -1.746615
v 2.057965 0.565100 -1.084326
v 0.233206 0.779220 -1.331013
v -1.404292 0.885433 -1.544030
v -2.487368 0.955685 -1.684924
v -4.057965 2.050176 -0.617831
v -4.057965 1.675854 -1.547171
v -4.057965 1.013894 -1.829145
v -4.057965 0.132482 -2.204599
v -4.057965 -0.764041 -2.021470
v -4.057965 -1.774592 -1.186541
v -4.057965 -2.050176 0.000000
v -4.057965 -1.774592 1.186541
v -4.057965 -0.764041 2.021470
v -4.057965 0.132482 2.204599
v -4.057965 1.013894 1.829145
v -4.057965 1.675854 1.547171
v -4.057965 2.050176 0.617831
vt 0.504590 0.407853
vt 0.590973 0.434764
vt 0.563439 0.521358
vt 0.469915 0.515957
vt 0.541623 0.577551
vt 0.443074 0.585482
vt 0.422916 0.637696
vt 0.525238 0.619754
vt 0.509727 0.650528
vt 0.404301 0.675206
vt 0.507070 0.376220
vt 0.592153 0.410207
vt 0.591393 0.421071
vt 0.505749 0.390135
vt 0.499190 0.671822
vt 0.391566 0.701267
vt 0.355238 0.649564
vt 0.334570 0.691528
vt 0.408056 0.512385
vt 0.377892 0.590727
vt 0.447454 0.390054
vt 0.449103 0.369673
vt 0.450794 0.353740
vt 0.629805 0.615660
vt 0.621643 0.631911
vt 0.641962 0.592010
vt 0.670964 0.517862
vt 0.654401 0.560208
vt 0.691219 0.453392
vt 0.706970 0.339234
vt 0.718301 0.344525
vt 0.717354 0.347916
vt 0.705657 0.343814
vt 0.691303 0.435876
vt 0.691015 0.443705
vt 0.130999 -0.590171
vt 0.112877 -0.479201
vt 0.009412 -0.494604
vt 0.024279 -0.583481
vt 0.107847 -0.407594
vt 0.005525 -0.436721
vt 0.104070 -0.353815
vt 0.107387 -0.314964
vt 0.005675 -0.361362
vt 0.002605 -0.393250
vt 0.147484 -0.622237
vt 0.140568 -0.608120
vt 0.032369 -0.597327
vt 0.038164 -0.608335
vt 0.109401 -0.287980
vt 0.007513 -0.339308
vt 0.171181 -0.327733
vt 0.174662 -0.284275
vt 0.181312 -0.469013
vt 0.175526 -0.388329
vt 0.201585 -0.594596
vt 0.212133 -0.615259
vt 0.219790 -0.631433
vt -0.105195 -0.403804
vt -0.106774 -0.420642
vt -0.109477 -0.445160
vt -0.107412 -0.477924
vt -0.104662 -0.521549
vt -0.093236 -0.587706
vt -0.054933 -0.698859
vt -0.055928 -0.694167
vt -0.070633 -0.692814
vt -0.069860 -0.696287
vt -0.086783 -0.597474
vt -0.082227 -0.605394
vt 0.270006 -0.298732
vt 0.273826 -0.252058
vt 0.274631 -0.363656
vt 0.280789 -0.450103
vt 0.291775 -0.530723
vt 0.309411 -0.613466
vt 0.322235 -0.623625
vt 0.366190 0.351989
vt 0.361882 0.341701
vt 0.343100 0.432740
vt 0.316449 0.511202
vt 0.284102 0.595138
vt 0.259809 0.658176
vt 0.237557 0.703243
vn 0.165103 -0.391064 0.905434
vn 0.147495 -0.417136 0.896796
vn 0.156971 -0.399754 0.903082
vn 0.139624 -0.420684 0.896398
vn 0.135850 0.393876 0.909069
vn 0.153933 0.417773 0.895416
vn 0.142601 0.398549 0.905993
vn 0.158877 0.420152 0.893437
vn 0.161904 0.917484 0.363331
vn 0.184448 0.921741 0.341135
vn 0.167794 0.915943 0.364545
vn 0.189746 0.918863 0.345960
vn 0.211621 -0.899733 0.381703
vn 0.180074 -0.913233 0.365486
vn 0.206743 -0.907748 0.365035
vn 0.190393 -0.916700 0.351300
vn 0.192509 0.910632 0.365636
vn 0.175098 0.906590 0.383974
vn 0.205581 -0.916523 0.343108
vn 0.200799 -0.910846 0.360610
vn 0.115727 0.920157 0.374056
vn 0.117458 0.920343 0.373059
vn 0.112794 0.386336 0.915435
vn 0.116099 0.386928 0.914772
vn 0.190439 -0.380836 0.904819
vn 0.176238 -0.361392 0.915607
vn 0.178989 -0.920398 0.347608
vn 0.168057 -0.842942 0.511083
vn 0.134668 -0.908575 0.395418
vn 0.211096 0.923055 0.321571
vn 0.211301 0.914710 0.344468
vn 0.208912 0.925159 0.316916
vn 0.159137 0.451050 0.878197
vn 0.165682 0.445665 0.879734
vn 0.148169 -0.451829 0.879714
vn 0.140901 -0.439461 0.887142
vn 0.187146 -0.622159 0.760194
vn 0.182340 -0.648621 0.738947
vn 0.186413 -0.626323 0.756947
vn 0.180899 -0.656188 0.732593
vn 0.145739 -0.926227 0.347654
vn 0.144763 -0.927978 0.343367
vn 0.203466 -0.822430 -0.531235
vn 0.097801 -0.817336 -0.567800
vn 0.085627 -0.816100 -0.571533
vn 0.084037 -0.815929 -0.572013
vn 0.984669 -0.116378 0.129939
vn 0.975904 -0.206826 0.069527
vn 0.980235 -0.175965 0.090419
vn 0.975834 -0.207255 0.069234
vn -0.073250 0.620171 0.781040
vn 0.029132 0.591747 0.805597
vn 0.021270 0.594183 0.804048
vn 0.030776 0.591233 0.805914
vn -0.733408 -0.430545 0.526064
vn -0.676732 -0.644765 0.355404
vn -0.632781 -0.726747 0.267259
vn -0.632128 -0.727755 0.266060
vn 0.172361 0.443930 0.879328
vn 0.160846 0.416156 0.894954
vn 0.149241 0.393594 0.907089
vn 0.118477 0.385889 0.914906
vn 0.165103 -0.391063 -0.905434
vn 0.156971 -0.399754 -0.903082
vn 0.147495 -0.417136 -0.896796
vn 0.139624 -0.420684 -0.896398
vn 0.135850 0.393876 -0.909069
vn 0.142601 0.398549 -0.905993
vn 0.153933 0.417773 -0.895416
vn 0.158877 0.420152 -0.893437
vn 0.161904 0.917484 -0.363331
vn 0.167794 0.915943 -0.364545
vn 0.184448 0.921741 -0.341135
vn 0.189746 0.918863 -0.345960
vn 0.211621 -0.899733 -0.381703
vn 0.206743 -0.907748 -0.365035
vn 0.180074 -0.913233 -0.365486
vn 0.190393 -0.916700 -0.351300
vn 0.175098 0.906590 -0.383974
vn 0.192509 0.910632 -0.365636
vn 0.200799 -0.910846 -0.360610
vn 0.205581 -0.916523 -0.343108
vn 0.115727 0.920157 -0.374056
vn 0.117458 0.920343 -0.373059
vn 0.112794 0.386336 -0.915435
vn 0.116099 0.386928 -0.914772
vn 0.190439 -0.380836 -0.904819
vn 0.176238 -0.361392 -0.915607
vn 0.168057 -0.842942 -0.511083
vn 0.178989 -0.920398 -0.347608
vn 0.134668 -0.908575 -0.395418
vn 0.211301 0.914710 -0.344468
vn 0.211096 0.923055 -0.321571
vn 0.208912 0.925159 -0.316916
vn 0.165682 0.445665 -0.879734
vn 0.159137 0.451050 -0.878197
vn 0.140901 -0.439461 -0.887142
vn 0.148169 -0.451829 -0.879714
vn 0.187146 -0.622158 -0.760194
vn 0.186413 -0.626323 -0.756948
vn 0.182340 -0.648621 -0.738947
vn 0.180899 -0.656188 -0.732593
vn 0.145739 -0.926227 -0.347654
vn 0.144763 -0.927978 -0.343367
vn 0.203466 -0.822430 0.531235
vn 0.085627 -0.816100 0.571532
vn 0.097801 -0.817336 0.567800
vn 0.084037 -0.815929 0.572013
vn 0.984669 -0.116377 -0.129939
vn 0.980235 -0.175965 -0.090419
vn 0.975904 -0.206825 -0.069527
vn 0.975834 -0.207255 -0.069234
vn -0.073249 0.620171 -0.781040
vn 0.021270 0.594183 -0.804048
vn 0.029132 0.591747 -0.805597
vn 0.030776 0.591233 -0.805914
vn -0.733408 -0.430546 -0.526064
vn -0.632781 -0.726747 -0.267259
vn -0.676732 -0.644765 -0.355404
vn -0.632128 -0.727755 -0.266060
vn 0.160846 0.416156 -0.894954
vn 0.172361 0.443930 -0.879328
vn 0.149241 0.393594 -0.907089
vn 0.118477 0.385889 -0.914906
vn 0.088974 0.923905 -0.372133
vn 0.088195 0.923471 -0.373394
vn 0.096713 0.390058 -0.915697
vn 0.098882 0.388862 -0.915974
vn 0.100932 0.389894 -0.915312
vn 0.107415 -0.198975 -0.974100
vn 0.170109 -0.308385 -0.935928
vn 0.071743 -0.635297 -0.768928
vn 0.134696 -0.847998 -0.512598
vn 0.150681 -0.956625 -0.249326
vn 0.134696 -0.847998 0.512598
vn 0.150681 -0.956625 0.249326
vn 0.071743 -0.635297 0.768928
vn 0.107415 -0.198975 0.974100
vn 0.170109 -0.308385 0.935928
vn 0.100932 0.389894 0.915312
vn 0.098882 0.388862 0.915974
vn 0.096713 0.390058 0.915697
vn 0.088974 0.923905 0.372133
vn 0.088195 0.923471 0.373394
s 1
g polySurface2 pCylinder5
usemtl blinn2SG
f 18/1/1 7/2/2 17/4/3
f 17/4/3 7/2/2 8/3/4
s 2
f 17/4/5 8/3/6 34/6/7
f 34/6/7 8/3/6 33/5/8
s 3
f 16/7/9 9/8/10 15/10/11
f 15/10/11 9/8/10 10/9/12
s 4
f 20/11/13 3/12/14 19/14/15
f 19/14/15 3/12/14 12/13/16
s 3
f 10/9/12 2/15/17 15/10/11
f 15/10/11 2/15/17 14/16/18
s 4
f 12/13/16 7/2/19 19/14/15
f 19/14/15 7/2/19 18/1/20
s 3
f 6/17/21 16/7/9 11/18/22
f 11/18/22 16/7/9 15/10/11
s 2
f 5/19/23 17/4/5 35/20/24
f 35/20/24 17/4/5 34/6/7
s 1
f 4/21/25 18/1/1 5/19/26
f 5/19/26 18/1/1 17/4/3
s 4
f 19/14/15 18/1/20 13/22/27
f 13/22/27 18/1/20 4/21/28
f 1/23/29 20/11/13 13/22/27
f 13/22/27 20/11/13 19/14/15
s 3
f 22/24/30 21/25/31 10/9/12
f 10/9/12 21/25/31 2/15/17
f 9/8/10 23/26/32 10/9/12
f 10/9/12 23/26/32 22/24/30
s 2
f 24/27/33 32/28/34 8/3/6
f 8/3/6 32/28/34 33/5/8
s 1
f 25/29/35 24/27/36 7/2/2
f 7/2/2 24/27/36 8/3/4
s 5
f 29/30/37 28/31/38 31/33/39
f 31/33/39 28/31/38 30/32/40
s 4
f 3/12/14 27/34/41 12/13/16
f 12/13/16 27/34/41 26/35/42
s 6
f 28/31/43 29/30/44 26/35/45
f 12/13/46 26/35/45 29/30/44
s 7
f 28/31/47 26/35/48 30/32/49
f 26/35/48 25/29/50 30/32/49
s 8
f 30/32/51 25/29/52 31/33/53
f 25/29/52 7/2/54 31/33/53
s 9
f 29/30/55 31/33/56 12/13/57
f 7/2/58 12/13/57 31/33/56
s 2
f 32/28/34 23/26/59 33/5/8
f 33/5/8 23/26/59 9/8/60
f 33/5/8 9/8/60 34/6/7
f 34/6/7 9/8/60 16/7/61
f 34/6/7 16/7/61 35/20/24
f 35/20/24 16/7/61 6/17/62
s 10
f 49/36/63 48/37/64 39/39/65
f 39/39/65 48/37/64 40/38/66
s 11
f 48/37/67 62/40/68 40/38/69
f 40/38/69 62/40/68 61/41/70
s 12
f 47/42/71 46/43/72 41/45/73
f 41/45/73 46/43/72 42/44/74
s 13
f 20/46/75 50/47/76 3/49/77
f 3/49/77 50/47/76 44/48/78
s 12
f 14/50/79 2/51/80 46/43/72
f 46/43/72 2/51/80 42/44/74
s 13
f 49/36/81 39/39/82 50/47/76
f 50/47/76 39/39/82 44/48/78
s 12
f 38/52/83 43/53/84 47/42/71
f 47/42/71 43/53/84 46/43/72
s 11
f 37/54/85 63/55/86 48/37/67
f 48/37/67 63/55/86 62/40/68
s 10
f 36/56/87 37/54/88 49/36/63
f 49/36/63 37/54/88 48/37/64
s 13
f 36/56/89 49/36/81 45/57/90
f 45/57/90 49/36/81 50/47/76
f 1/58/91 45/57/90 20/46/75
f 20/46/75 45/57/90 50/47/76
s 12
f 2/51/80 21/59/92 42/44/74
f 42/44/74 21/59/92 51/60/93
f 41/45/73 42/44/74 52/61/94
f 52/61/94 42/44/74 51/60/93
s 11
f 61/41/70 60/62/95 40/38/69
f 40/38/69 60/62/95 53/63/96
s 10
f 40/38/66 53/63/97 39/39/65
f 39/39/65 53/63/97 54/64/98
s 18
f 57/65/99 59/66/100 56/68/101
f 56/68/101 59/66/100 58/67/102
s 13
f 3/49/77 44/48/78 27/70/103
f 27/70/103 44/48/78 55/69/104
s 19
f 56/68/105 55/69/106 57/65/107
f 44/48/108 57/65/107 55/69/106
s 20
f 56/68/109 58/67/110 55/69/111
f 55/69/111 58/67/110 54/64/112
s 21
f 58/67/113 59/66/114 54/64/115
f 54/64/115 59/66/114 39/39/116
s 22
f 57/65/117 44/48/118 59/66/119
f 39/39/120 59/66/119 44/48/118
s 11
f 41/45/121 52/61/122 61/41/70
f 61/41/70 52/61/122 60/62/95
f 47/42/123 41/45/121 62/40/68
f 62/40/68 41/45/121 61/41/70
f 38/52/124 47/42/123 63/55/86
f 63/55/86 47/42/123 62/40/68
s 12
f 65/71/125 64/72/126 38/52/83
f 38/52/83 64/72/126 43/53/84
s 11
f 65/71/127 38/52/124 66/73/128
f 66/73/128 38/52/124 63/55/86
f 67/74/129 66/73/128 37/54/85
f 37/54/85 66/73/128 63/55/86
s 10
f 67/74/130 37/54/88 68/75/131
f 68/75/131 37/54/88 36/56/87
s 13
f 68/75/132 36/56/89 69/76/133
f 69/76/133 36/56/89 45/57/90
f 69/76/133 45/57/90 70/77/134
f 70/77/134 45/57/90 1/58/91
s 4
f 71/78/135 70/79/136 13/22/27
f 13/22/27 70/79/136 1/23/29
f 72/80/137 71/78/135 4/21/28
f 4/21/28 71/78/135 13/22/27
s 1
f 73/81/138 72/80/139 5/19/26
f 5/19/26 72/80/139 4/21/25
s 2
f 73/81/140 5/19/23 74/82/141
f 74/82/141 5/19/23 35/20/24
f 75/83/142 74/82/141 6/17/62
f 6/17/62 74/82/141 35/20/24
s 3
f 75/83/143 6/17/21 76/84/144
f 76/84/144 6/17/21 11/18/22
