# This file uses centimeters as units for non-parametric coordinates.

mtllib Body_Rear.mtl
g default
v -2.687529 0.880228 0.000000
v -2.687529 -0.939880 0.000000
v -2.687529 -0.673331 0.811878
v -2.687529 -0.029826 1.164737
v -2.687529 0.613679 0.811878
v -2.687529 0.769753 0.313076
v -2.687529 -0.824976 0.327228
v -1.468678 -0.544793 0.811878
v -1.468678 -0.029826 1.164737
v -1.468678 0.485141 0.811878
v -1.468678 0.610039 0.313076
v -1.468678 -0.758100 0.000000
v -1.468678 -0.666147 0.327228
v -1.468678 0.698448 0.000000
v -0.438677 -0.479043 0.720740
v -0.438677 -0.089826 0.966095
v -0.438677 0.299391 0.720740
v -0.438677 0.393790 0.373905
v -0.631649 -0.673533 0.000000
v -0.631649 -0.604034 0.383746
v -0.438677 0.460610 0.000000
v -1.017667 -0.969724 -0.000000
v -1.017667 -0.877772 0.170000
v -0.686360 -0.978316 -0.000000
v -0.686360 -0.908818 0.060000
v -0.768037 1.000174 0.070000
v -0.768037 1.071050 -0.000000
v -0.623048 0.733121 0.260415
v -0.623048 0.799941 -0.000000
v -0.438677 0.132454 0.825974
v -1.468678 0.264269 0.963221
v -2.687529 0.337677 0.963221
v -2.687529 -0.673331 -0.811878
v -2.687529 -0.029826 -1.164737
v -2.687529 0.613679 -0.811878
v -2.687529 0.769753 -0.313076
v -2.687529 -0.824976 -0.327228
v -1.468678 -0.544793 -0.811878
v -1.468678 -0.029826 -1.164737
v -1.468678 0.485141 -0.811878
v -1.468678 0.610039 -0.313076
v -1.468678 -0.666147 -0.327228
v -0.438677 -0.479043 -0.720740
v -0.438677 -0.089826 -0.966095
v -0.438677 0.299391 -0.720740
v -0.438677 0.393790 -0.373905
v -0.631649 -0.604034 -0.383746
v -1.017667 -0.877772 -0.170000
v -0.686360 -0.908818 -0.060000
v -0.768037 1.000174 -0.070000
v -0.623048 0.733121 -0.260415
v -0.438677 0.132454 -0.825974
v -1.468678 0.264269 -0.963221
v -2.687529 0.337677 -0.963221
v 1.492785 0.181635 -0.499479
v 1.492785 0.048383 -0.593172
v 1.492785 -0.129043 -0.717926
v 1.492785 -0.439721 -0.499479
v 1.489011 -0.513584 -0.199442
v 1.489011 -0.569059 0.000000
v 1.489011 -0.513584 0.199442
v 1.492785 -0.439721 0.499479
v 1.492785 -0.129043 0.717927
v 1.492785 0.048383 0.593172
v 1.492785 0.181635 0.499479
v 1.492785 0.256985 0.190681
v 1.492785 0.310322 0.000000
v 1.492785 0.256985 -0.190681
v -3.492785 0.756921 -0.904317
v -3.492785 0.432167 -1.072083
v -3.492785 -0.000249 -1.295466
v -3.492785 -0.757419 -0.904317
v -3.492785 -0.935850 -0.367077
v -3.492785 -1.071050 0.000000
v -3.492785 -0.935850 0.367077
v -3.492785 -0.757419 0.904317
v -3.492785 -0.000249 1.295466
v -3.492785 0.432167 1.072083
v -3.492785 0.756921 0.904317
v -3.492785 0.940561 0.351389
v -3.492785 1.070551 0.000000
v -3.492785 0.940561 -0.351389
vt 0.723751 0.516146
vt 0.740432 0.462537
vt 0.808899 0.473381
vt 0.796329 0.515419
vt 0.709767 0.551693
vt 0.784693 0.544359
vt 0.688755 0.598543
vt 0.699264 0.578390
vt 0.775954 0.566093
vt 0.766442 0.583439
vt 0.739922 0.454817
vt 0.739978 0.448477
vt 0.806742 0.464114
vt 0.807420 0.468387
vt 0.681758 0.612319
vt 0.760151 0.595229
vt 0.867120 0.479801
vt 0.857384 0.511835
vt 0.848724 0.533559
vt 0.842220 0.549874
vt 0.835365 0.562615
vt 0.839306 0.450993
vt 0.840367 0.444795
vt 0.860370 0.443825
vt 0.858811 0.449346
vt 0.789953 0.628352
vt 0.792994 0.621115
vt 0.812276 0.594659
vt 0.807259 0.603861
vt 0.855900 0.472788
vt 0.978427 0.484897
vt 0.970905 0.510190
vt 0.963850 0.527688
vt 0.958551 0.540830
vt 0.952726 0.551391
vt 0.853879 0.471228
vt 0.976815 0.479368
vt 0.977246 0.481922
vt 0.829092 0.573205
vt 0.948910 0.558526
vt -0.160663 -0.534777
vt -0.238985 -0.551190
vt -0.230605 -0.594295
vt -0.150927 -0.589779
vt -0.162855 -0.498151
vt -0.240402 -0.521360
vt -0.161977 -0.449743
vt -0.238615 -0.480941
vt -0.241467 -0.498956
vt -0.164501 -0.470644
vt -0.145277 -0.597547
vt -0.225274 -0.599258
vt -0.221569 -0.603536
vt -0.141330 -0.603950
vt -0.160526 -0.435466
vt -0.236930 -0.468707
vt -0.302878 -0.568045
vt -0.296723 -0.600900
vt -0.304051 -0.545656
vt -0.303029 -0.515616
vt -0.304932 -0.528842
vt -0.250709 -0.622887
vt -0.270752 -0.628799
vt -0.269517 -0.634456
vt -0.248318 -0.629200
vt -0.285882 -0.443651
vt -0.292340 -0.470700
vt -0.293812 -0.480254
vt -0.285720 -0.451118
vt -0.280188 -0.605511
vt -0.424503 -0.594475
vt -0.419401 -0.620407
vt -0.425332 -0.576437
vt -0.424168 -0.551920
vt -0.425954 -0.562890
vt -0.415872 -0.623312
vt -0.413619 -0.625867
vt -0.276247 -0.606980
vt -0.300608 -0.504594
vt -0.423137 -0.544516
vt -0.113017 -0.479968
vt -0.115039 -0.447736
vt -0.110323 -0.522886
vt -0.099068 -0.587915
vt -0.092696 -0.597482
vt -0.088202 -0.605248
vt 0.695960 0.444828
vt 0.696224 0.437150
vt 0.696194 0.454316
vt 0.676301 0.517689
vt 0.659998 0.559347
vt 0.647754 0.590633
vt 0.635765 0.613930
vt 0.627720 0.629931
vt -0.112354 -0.423584
vt -0.110788 -0.407005
vn 0.050639 -0.480184 0.875705
vn 0.019092 -0.533998 0.845271
vn 0.037128 -0.503566 0.863159
vn 0.000000 -0.565244 0.824924
vn 0.037667 0.484904 0.873756
vn 0.024384 0.494339 0.868927
vn 0.017831 0.553674 0.832542
vn 0.000000 0.565244 0.824924
vn 0.124091 0.946996 0.296311
vn 0.118627 0.951778 0.282926
vn 0.107566 0.960718 0.255833
vn 0.101769 0.965016 0.241636
vn 0.139345 -0.934316 0.328080
vn 0.127124 -0.951846 0.278977
vn 0.136924 -0.938050 0.318298
vn 0.124476 -0.955225 0.268422
vn 0.139271 0.933820 0.329519
vn 0.137064 0.937413 0.320110
vn 0.127534 0.951554 0.279787
vn 0.125114 0.954803 0.269624
vn 0.123414 -0.947077 0.296336
vn 0.107247 -0.960849 0.255475
vn 0.118254 -0.951715 0.283291
vn 0.101769 -0.965016 0.241637
vn 0.125173 -0.560798 0.818436
vn 0.121634 -0.554432 0.823293
vn 0.115125 -0.542658 0.832027
vn 0.108254 -0.530135 0.840974
vn 0.188574 0.555103 0.810124
vn 0.180827 0.532704 0.826757
vn 0.180945 0.552582 0.813580
vn 0.178075 0.524746 0.832425
vn 0.186014 0.953122 0.238658
vn 0.187214 0.952122 0.241689
vn 0.190838 0.949027 0.250856
vn 0.193519 0.946660 0.257655
vn 0.075324 -0.877077 0.474408
vn 0.067558 -0.862148 0.502133
vn 0.027350 -0.773072 0.633729
vn -0.016945 -0.653393 0.756829
vn 0.795752 0.425569 0.430894
vn 0.822037 0.499934 0.272620
vn 0.825256 0.541540 0.160274
vn 0.824610 0.547951 0.140599
vn 0.055498 -0.968557 0.242523
vn 0.078596 -0.955057 0.285813
vn 0.063572 -0.964133 0.257696
vn 0.087327 -0.949274 0.302081
vn 0.097400 -0.530734 0.841923
vn 0.098168 -0.534992 0.839135
vn 0.103616 -0.565226 0.818403
vn 0.104839 -0.572011 0.813518
vn 0.118676 0.529501 0.839967
vn 0.122317 0.566823 0.814709
vn 0.121159 0.530758 0.838818
vn 0.124812 0.569318 0.812588
vn 0.088563 0.961108 0.261588
vn 0.090633 0.966722 0.239237
vn 0.088775 0.961702 0.259324
vn 0.090921 0.967472 0.236076
vn 0.057362 -0.982373 0.177914
vn 0.057032 -0.981831 0.180986
vn 0.049344 -0.966809 0.250689
vn 0.047409 -0.962342 0.267675
vn 0.086093 0.980749 0.175268
vn 0.077121 0.965269 0.249617
vn 0.085707 0.980187 0.178570
vn 0.074725 0.960342 0.268624
vn 0.067587 -0.947442 0.312706
vn 0.050302 -0.966917 0.250081
vn 0.066352 -0.948991 0.308243
vn 0.047039 -0.970071 0.238221
vn -0.336565 -0.906548 0.254744
vn -0.344197 -0.895249 0.282945
vn -0.362934 -0.860737 0.356946
vn -0.381502 -0.813052 0.439776
vn 0.975426 -0.216799 0.039264
vn 0.975028 -0.204843 0.085788
vn 0.975492 -0.215519 0.044345
vn 0.964282 -0.173094 0.200496
vn -0.008493 -0.607954 0.793927
vn 0.030841 -0.641807 0.766246
vn 0.057223 -0.663317 0.746148
vn 0.151769 -0.732346 0.663804
vn -0.403955 0.880351 0.248600
vn -0.383877 0.774903 0.502160
vn -0.403750 0.877535 0.258688
vn -0.350052 0.658238 0.666473
vn 0.011922 0.322982 0.946330
vn -0.004903 0.421646 0.906748
vn -0.010381 0.452781 0.891561
vn -0.031613 0.568830 0.821847
vn 0.862389 0.498350 0.089060
vn 0.865681 0.490611 0.099491
vn 0.867070 0.487202 0.104043
vn 0.872157 0.473876 0.121592
vn 0.124367 0.530989 0.838203
vn 0.127723 0.570470 0.811327
vn 0.172312 0.556789 0.812585
vn 0.176969 0.531068 0.828643
vn 0.050639 0.480184 0.875705
vn 0.036989 0.550333 0.834125
vn 0.000000 -0.565244 -0.824924
vn 0.019092 -0.533997 -0.845271
vn 0.037128 -0.503566 -0.863159
vn 0.050639 -0.480184 -0.875705
vn 0.037667 0.484904 -0.873756
vn 0.017831 0.553675 -0.832542
vn 0.024384 0.494339 -0.868927
vn 0.000000 0.565244 -0.824924
vn 0.124090 0.946996 -0.296311
vn 0.107566 0.960718 -0.255833
vn 0.118627 0.951778 -0.282926
vn 0.101769 0.965016 -0.241636
vn 0.124476 -0.955225 -0.268422
vn 0.127124 -0.951846 -0.278977
vn 0.136924 -0.938050 -0.318298
vn 0.139345 -0.934316 -0.328080
vn 0.139271 0.933820 -0.329519
vn 0.127534 0.951554 -0.279787
vn 0.137064 0.937413 -0.320110
vn 0.125114 0.954803 -0.269624
vn 0.101769 -0.965016 -0.241636
vn 0.107247 -0.960849 -0.255475
vn 0.118254 -0.951715 -0.283291
vn 0.123414 -0.947077 -0.296336
vn 0.125173 -0.560798 -0.818436
vn 0.115125 -0.542658 -0.832027
vn 0.121634 -0.554432 -0.823293
vn 0.108254 -0.530135 -0.840974
vn 0.178075 0.524746 -0.832425
vn 0.180827 0.532704 -0.826757
vn 0.180945 0.552582 -0.813580
vn 0.188574 0.555103 -0.810124
vn 0.186014 0.953122 -0.238658
vn 0.190838 0.949027 -0.250856
vn 0.187214 0.952123 -0.241689
vn 0.193519 0.946660 -0.257655
vn 0.075323 -0.877077 -0.474407
vn 0.027350 -0.773072 -0.633729
vn 0.067558 -0.862149 -0.502131
vn -0.016945 -0.653392 -0.756830
vn 0.795752 0.425569 -0.430894
vn 0.825254 0.541543 -0.160273
vn 0.822036 0.499935 -0.272620
vn 0.824609 0.547953 -0.140599
vn 0.087327 -0.949274 -0.302082
vn 0.078596 -0.955057 -0.285813
vn 0.063572 -0.964133 -0.257696
vn 0.055498 -0.968557 -0.242523
vn 0.097400 -0.530734 -0.841923
vn 0.103616 -0.565227 -0.818403
vn 0.098168 -0.534991 -0.839135
vn 0.104839 -0.572011 -0.813518
vn 0.124812 0.569318 -0.812588
vn 0.122317 0.566823 -0.814708
vn 0.121159 0.530758 -0.838818
vn 0.118676 0.529501 -0.839967
vn 0.090921 0.967472 -0.236076
vn 0.090633 0.966722 -0.239237
vn 0.088775 0.961702 -0.259324
vn 0.088563 0.961108 -0.261588
vn 0.057362 -0.982373 -0.177914
vn 0.049344 -0.966809 -0.250689
vn 0.057032 -0.981831 -0.180986
vn 0.047409 -0.962342 -0.267675
vn 0.074725 0.960342 -0.268624
vn 0.077121 0.965269 -0.249617
vn 0.085707 0.980187 -0.178570
vn 0.086093 0.980749 -0.175268
vn 0.047039 -0.970071 -0.238221
vn 0.050302 -0.966917 -0.250081
vn 0.066352 -0.948991 -0.308243
vn 0.067587 -0.947442 -0.312706
vn -0.336565 -0.906549 -0.254743
vn -0.362933 -0.860738 -0.356946
vn -0.344197 -0.895249 -0.282945
vn -0.381502 -0.813052 -0.439776
vn 0.964282 -0.173095 -0.200496
vn 0.975028 -0.204843 -0.085788
vn 0.975492 -0.215519 -0.044345
vn 0.975426 -0.216799 -0.039264
vn 0.151769 -0.732346 -0.663804
vn 0.030841 -0.641807 -0.766246
vn 0.057223 -0.663317 -0.746148
vn -0.008493 -0.607954 -0.793927
vn -0.350052 0.658237 -0.666474
vn -0.383877 0.774903 -0.502160
vn -0.403749 0.877535 -0.258688
vn -0.403955 0.880352 -0.248600
vn 0.011922 0.322982 -0.946330
vn -0.010381 0.452781 -0.891561
vn -0.004903 0.421646 -0.906748
vn -0.031613 0.568830 -0.821847
vn 0.862389 0.498351 -0.089060
vn 0.867070 0.487202 -0.104043
vn 0.865680 0.490611 -0.099491
vn 0.872157 0.473875 -0.121592
vn 0.127723 0.570470 -0.811327
vn 0.124367 0.530989 -0.838203
vn 0.172312 0.556789 -0.812585
vn 0.176969 0.531068 -0.828643
vn 0.050639 0.480184 -0.875705
vn 0.036989 0.550333 -0.834125
vn 0.180612 0.451421 -0.873841
vn 0.174747 0.467211 -0.866705
vn 0.169930 0.457553 -0.872794
vn 0.172338 0.473606 -0.863711
vn 0.159042 0.453127 -0.877144
vn 0.167394 0.466010 -0.868800
vn 0.126357 -0.455290 -0.881331
vn 0.136652 -0.464421 -0.875008
vn 0.136233 -0.464051 -0.875270
vn 0.149175 -0.475421 -0.867019
vn 0.134063 -0.940460 -0.312349
vn 0.140329 -0.942800 -0.302385
vn 0.142544 -0.936694 -0.319821
vn 0.144714 -0.940092 -0.308683
vn 0.151099 -0.927602 -0.341650
vn 0.146711 -0.931775 -0.332072
vn 0.151099 -0.927602 0.341650
vn 0.146711 -0.931775 0.332072
vn 0.142544 -0.936694 0.319821
vn 0.144714 -0.940092 0.308683
vn 0.134063 -0.940460 0.312349
vn 0.140329 -0.942800 0.302385
vn 0.126357 -0.455290 0.881332
vn 0.136233 -0.464051 0.875270
vn 0.136652 -0.464421 0.875008
vn 0.149175 -0.475421 0.867019
vn 0.159042 0.453127 0.877144
vn 0.167394 0.466011 0.868800
vn 0.169930 0.457553 0.872794
vn 0.172338 0.473606 0.863711
vn 0.180612 0.451421 0.873841
vn 0.174747 0.467211 0.866705
vn 0.200822 0.929693 0.308773
vn 0.207218 0.931520 0.298884
vn 0.208854 0.925394 0.316271
vn 0.211486 0.928685 0.304659
vn 0.216416 0.915656 0.338729
vn 0.212579 0.920025 0.329187
vn 0.216416 0.915656 -0.338729
vn 0.212579 0.920025 -0.329187
vn 0.208854 0.925394 -0.316271
vn 0.211486 0.928685 -0.304660
vn 0.200822 0.929693 -0.308773
vn 0.207218 0.931520 -0.298884
s 1
g polySurface6 pCylinder5
usemtl blinn2SG
f 3/2/1 8/3/2 4/1/3
f 4/1/3 8/3/2 9/4/4
s 2
f 32/5/5 4/1/6 31/6/7
f 31/6/7 4/1/6 9/4/8
s 3
f 6/7/9 5/8/10 11/10/11
f 11/10/11 5/8/10 10/9/12
s 4
f 2/12/13 12/13/14 7/11/15
f 7/11/15 12/13/14 13/14/16
s 5
f 1/15/17 6/7/18 14/16/19
f 14/16/19 6/7/18 11/10/20
s 6
f 7/11/21 13/14/22 3/2/23
f 3/2/23 13/14/22 8/3/24
s 7
f 9/4/25 8/3/26 16/18/27
f 16/18/27 8/3/26 15/17/28
s 8
f 9/4/29 16/18/30 31/6/31
f 31/6/31 16/18/30 30/19/32
s 9
f 11/10/33 10/9/34 18/21/35
f 18/21/35 10/9/34 17/20/36
s 10
f 23/22/37 22/23/38 25/25/39
f 25/25/39 22/23/38 24/24/40
s 11
f 27/26/41 26/27/42 29/29/43
f 29/29/43 26/27/42 28/28/44
s 12
f 13/14/45 20/30/46 8/3/47
f 8/3/47 20/30/46 15/17/48
s 13
f 16/18/49 15/17/50 63/32/51
f 63/32/51 15/17/50 62/31/52
s 14
f 16/18/53 63/32/54 30/19/55
f 30/19/55 63/32/54 64/33/56
s 15
f 17/20/57 65/34/58 18/21/59
f 18/21/59 65/34/58 66/35/60
s 16
f 20/30/61 19/36/62 61/38/63
f 61/38/63 19/36/62 60/37/64
s 17
f 18/21/65 66/35/66 21/39/67
f 21/39/67 66/35/66 67/40/68
s 18
f 20/30/69 61/38/70 15/17/71
f 15/17/71 61/38/70 62/31/72
s 19
f 13/14/73 12/13/74 23/22/75
f 23/22/75 12/13/74 22/23/76
s 20
f 20/30/77 25/25/78 19/36/79
f 19/36/79 25/25/78 24/24/80
s 21
f 13/14/81 23/22/82 20/30/83
f 20/30/83 23/22/82 25/25/84
s 22
f 11/10/85 26/27/86 14/16/87
f 14/16/87 26/27/86 27/26/88
s 23
f 18/21/89 28/28/90 11/10/91
f 11/10/91 28/28/90 26/27/92
s 24
f 18/21/93 21/39/94 28/28/95
f 28/28/95 21/39/94 29/29/96
s 14
f 30/19/55 64/33/56 17/20/97
f 17/20/97 64/33/56 65/34/98
s 8
f 10/9/99 31/6/31 17/20/100
f 17/20/100 31/6/31 30/19/32
s 2
f 5/8/101 32/5/5 10/9/102
f 10/9/102 32/5/5 31/6/7
s 25
f 39/42/103 38/43/104 34/41/105
f 34/41/105 38/43/104 33/44/106
s 26
f 54/45/107 53/46/108 34/41/109
f 34/41/109 53/46/108 39/42/110
s 27
f 36/47/111 41/48/112 35/50/113
f 35/50/113 41/48/112 40/49/114
s 28
f 42/52/115 12/53/116 37/51/117
f 37/51/117 12/53/116 2/54/118
s 29
f 1/55/119 14/56/120 36/47/121
f 36/47/121 14/56/120 41/48/122
s 30
f 38/43/123 42/52/124 33/44/125
f 33/44/125 42/52/124 37/51/126
s 31
f 39/42/127 44/57/128 38/43/129
f 38/43/129 44/57/128 43/58/130
s 32
f 52/59/131 44/57/132 53/46/133
f 53/46/133 44/57/132 39/42/134
s 33
f 41/48/135 46/60/136 40/49/137
f 40/49/137 46/60/136 45/61/138
s 34
f 48/62/139 49/63/140 22/65/141
f 22/65/141 49/63/140 24/64/142
s 35
f 27/66/143 29/67/144 50/69/145
f 50/69/145 29/67/144 51/68/146
s 36
f 43/58/147 47/70/148 38/43/149
f 38/43/149 47/70/148 42/52/150
s 37
f 44/57/151 57/71/152 43/58/153
f 43/58/153 57/71/152 58/72/154
s 38
f 56/73/155 57/71/156 52/59/157
f 52/59/157 57/71/156 44/57/158
s 39
f 68/74/159 55/75/160 46/60/161
f 46/60/161 55/75/160 45/61/162
s 40
f 47/70/163 59/76/164 19/78/165
f 19/78/165 59/76/164 60/77/166
s 41
f 67/80/167 68/74/168 21/79/169
f 21/79/169 68/74/168 46/60/170
s 42
f 58/72/171 59/76/172 43/58/173
f 43/58/173 59/76/172 47/70/174
s 43
f 42/52/175 48/62/176 12/53/177
f 12/53/177 48/62/176 22/65/178
s 44
f 24/64/179 49/63/180 19/78/181
f 19/78/181 49/63/180 47/70/182
s 45
f 49/63/183 48/62/184 47/70/185
f 47/70/185 48/62/184 42/52/186
s 46
f 27/66/187 50/69/188 14/56/189
f 14/56/189 50/69/188 41/48/190
s 47
f 46/60/191 41/48/192 51/68/193
f 41/48/192 50/69/194 51/68/193
s 48
f 46/60/195 51/68/196 21/79/197
f 21/79/197 51/68/196 29/67/198
s 38
f 55/75/199 56/73/155 45/61/200
f 45/61/200 56/73/155 52/59/157
s 32
f 40/49/201 45/61/202 53/46/133
f 53/46/133 45/61/202 52/59/131
s 26
f 35/50/203 40/49/204 54/45/107
f 54/45/107 40/49/204 53/46/108
s 49
f 69/82/205 35/50/206 70/81/207
f 70/81/207 35/50/206 54/45/208
f 71/83/209 70/81/207 34/41/210
f 34/41/210 70/81/207 54/45/208
s 50
f 71/83/211 34/41/212 72/84/213
f 72/84/213 34/41/212 33/44/214
s 51
f 72/84/215 33/44/216 73/85/217
f 73/85/217 33/44/216 37/51/218
f 74/86/219 73/85/217 2/54/220
f 2/54/220 73/85/217 37/51/218
s 52
f 74/88/221 2/12/222 75/87/223
f 75/87/223 2/12/222 7/11/224
f 76/89/225 75/87/223 3/2/226
f 3/2/226 75/87/223 7/11/224
s 53
f 77/90/227 76/89/228 4/1/229
f 4/1/229 76/89/228 3/2/230
s 54
f 77/90/231 4/1/232 78/91/233
f 78/91/233 4/1/232 32/5/234
f 79/92/235 78/91/233 5/8/236
f 5/8/236 78/91/233 32/5/234
s 55
f 79/92/237 5/8/238 80/93/239
f 80/93/239 5/8/238 6/7/240
f 81/94/241 80/93/239 1/15/242
f 1/15/242 80/93/239 6/7/240
s 56
f 81/96/243 1/55/244 82/95/245
f 82/95/245 1/55/244 36/47/246
f 69/82/247 82/95/245 35/50/248
f 35/50/248 82/95/245 36/47/246
