# This file uses centimeters as units for non-parametric coordinates.

mtllib Body_Front.mtl
g default
v 0.955993 2.288199 0.000000
v 0.955993 -2.288199 0.000000
v 0.955993 -0.902178 2.161711
v 0.955993 0.000000 2.331408
v 0.955993 1.618001 1.636839
v 0.955993 2.010424 0.654996
v 0.955993 -1.841544 1.021182
v 1.938499 2.198028 0.000000
v 1.938499 1.931199 0.623243
v 1.938499 1.554240 1.560229
v 1.938499 0.000000 2.223066
v 1.938499 -0.838418 2.085102
v 1.938499 -1.920503 1.250000
v 1.938499 -2.198027 0.000000
v -1.913433 1.871060 0.000000
v -1.913433 1.621501 0.603841
v -1.753433 1.268940 1.513416
v -1.270230 -1.602266 2.038289
v -1.227943 -1.753216 1.073397
v -1.154514 -2.120000 0.000000
v -1.482286 -2.110000 0.000000
v -1.552516 -1.753204 0.981575
v -1.596053 -1.553714 1.926183
v -1.961425 1.234909 1.506281
v -2.089427 1.585166 0.600884
v -2.089427 1.833094 0.000000
v 1.938499 0.887619 1.844523
v 0.955993 0.924033 1.934743
v -1.503433 0.700000 1.789393
v -1.775680 0.676853 1.780991
v -1.577054 -0.403177 2.144675
v -1.499819 -0.392934 2.149080
v -1.255179 -0.365959 2.154727
v -1.187403 -0.342263 2.163482
v -1.252223 -0.380405 2.091680
v -1.264738 -1.589742 1.904929
v -1.220685 -0.370125 2.091143
v -1.489834 0.659275 1.662396
v -1.181656 -0.356019 2.100622
v -1.574643 -0.411784 2.082470
v -1.593534 -1.528567 1.794509
v -1.537819 -0.410626 2.080158
v -1.768585 0.635310 1.653737
v -1.496695 -0.400722 2.086809
v 0.955993 -0.902178 -2.161711
v 0.955993 0.000000 -2.331408
v 0.955993 1.618001 -1.636839
v 0.955993 2.010424 -0.654996
v 0.955993 -1.841544 -1.126602
v 1.938499 1.931199 -0.623243
v 1.938499 1.554240 -1.560229
v 1.938499 0.000000 -2.223066
v 1.938499 -0.838418 -2.085102
v 1.938499 -1.920503 -1.250000
v -1.913433 1.621501 -0.603841
v -1.753433 1.268940 -1.513416
v -1.270230 -1.602266 -2.038289
v -1.227943 -1.753216 -1.073397
v -1.552516 -1.753204 -0.981575
v -1.596053 -1.553714 -1.926183
v -1.961425 1.234909 -1.506281
v -2.089427 1.585166 -0.600884
v 1.938499 0.887619 -1.844523
v 0.955993 0.924033 -1.934743
v -1.503433 0.700000 -1.789393
v -1.775680 0.676853 -1.780991
v -1.577054 -0.403177 -2.144675
v -1.499819 -0.392934 -2.149080
v -1.255179 -0.365959 -2.154727
v -1.187403 -0.342263 -2.163482
v -1.252222 -0.380405 -2.091680
v -1.264738 -1.589742 -1.904929
v -1.220684 -0.370125 -2.091143
v -1.489833 0.659275 -1.662396
v -1.181656 -0.356019 -2.100622
v -1.574643 -0.411784 -2.082470
v -1.593534 -1.528566 -1.794508
v -1.537819 -0.410625 -2.080158
v -1.768585 0.635310 -1.653738
v -1.496695 -0.400722 -2.086809
v -1.348773 0.714088 1.798534
v -1.052617 -0.320740 2.174042
v -1.130236 -1.558241 2.046050
v -1.090608 -1.758771 1.076743
v -1.021796 -2.130577 0.000000
v -1.090608 -1.758771 -1.076743
v -1.130236 -1.558241 -2.046050
v -1.052617 -0.320740 -2.174042
v -1.348773 0.714088 -1.798534
v -1.583052 1.290891 -1.521178
v -1.732990 1.645958 -0.607058
v -1.732990 1.897292 0.000000
v -1.732990 1.645958 0.607058
v -1.583052 1.290891 1.521178
v 0.081634 -1.177141 -2.113236
v 0.098243 -1.806853 -1.105706
v 0.127082 -2.222138 0.000000
v 0.098243 -1.806853 1.044468
v 0.081634 -1.177141 2.113236
v 0.114165 -0.134425 2.265454
v -0.009957 0.836043 1.877656
v -0.108146 1.480906 1.588364
v -0.170986 1.857672 0.634904
v -0.170986 2.124366 0.000000
v -0.170986 1.857672 -0.634904
v -0.108146 1.480906 -1.588364
v -0.009957 0.836043 -1.877656
v 0.114165 -0.134425 -2.265454
vt 0.171835 0.374802
vt 0.232550 0.407563
vt 0.202817 0.499544
vt 0.138288 0.484586
vt 0.083398 0.582510
vt 0.160094 0.591722
vt 0.047930 0.637966
vt 0.130420 0.653369
vt 0.104081 0.698989
vt 0.017533 0.681202
vt 0.173969 0.348253
vt 0.245309 0.339326
vt 0.242538 0.363197
vt 0.169888 0.368588
vt 0.088528 0.730764
vt 0.002779 0.711255
vt 0.166524 0.711821
vt 0.227212 0.704493
vt 0.211784 0.736138
vt 0.150395 0.744841
vt 0.189937 0.664482
vt 0.249634 0.659095
vt 0.249374 0.510336
vt 0.306681 0.511076
vt 0.274101 0.595609
vt 0.215430 0.598368
vt 0.276356 0.431200
vt 0.331973 0.437292
vt 0.296781 0.332886
vt 0.352401 0.340417
vt 0.357350 0.350104
vt 0.294954 0.359307
vt 0.145890 0.350380
vt 0.165728 0.349284
vt 0.161495 0.369211
vt 0.141152 0.370529
vt 0.142626 0.376954
vt 0.164821 0.371018
vt 0.127400 0.480342
vt 0.163272 0.373773
vt 0.128943 0.481255
vt 0.075246 0.579326
vt -0.001815 0.676018
vt 0.027025 0.633334
vt 0.038401 0.636186
vt 0.007535 0.679148
vt -0.016391 0.705688
vt -0.007126 0.709001
vt 0.109103 0.477822
vt 0.140515 0.380827
vt 0.111233 0.477933
vt 0.059318 0.577441
vt 0.058974 0.579627
vt 0.074538 0.581446
vt 0.113438 0.478718
vt 0.113692 0.478659
vt 0.127459 0.480873
vt 0.130920 0.482386
vt 0.130834 0.482858
vt 0.109372 0.477837
vt 0.506502 -0.548715
vt 0.487393 -0.436863
vt 0.409688 -0.436512
vt 0.424048 -0.530626
vt 0.498649 -0.332225
vt 0.410671 -0.339989
vt 0.509938 -0.272089
vt 0.523469 -0.225375
vt 0.420631 -0.227172
vt 0.412597 -0.275230
vt 0.522672 -0.576684
vt 0.514172 -0.555271
vt 0.438044 -0.576106
vt 0.449812 -0.600631
vt 0.525892 -0.194256
vt 0.423125 -0.194271
vt 0.346434 -0.228469
vt 0.348979 -0.194282
vt 0.286795 -0.215860
vt 0.284400 -0.248623
vt 0.342366 -0.277497
vt 0.280544 -0.295639
vt 0.353625 -0.436258
vt 0.347195 -0.345590
vt 0.285198 -0.361025
vt 0.291396 -0.448087
vt 0.364558 -0.517575
vt 0.301391 -0.523913
vt 0.397244 -0.617909
vt 0.383117 -0.591138
vt 0.319784 -0.613275
vt 0.333159 -0.622793
vt 0.552045 -0.568578
vt 0.544591 -0.547304
vt 0.522967 -0.552864
vt 0.531089 -0.573918
vt 0.537389 -0.540472
vt 0.516027 -0.550804
vt 0.501537 -0.438633
vt 0.499407 -0.438099
vt 0.516657 -0.547994
vt 0.509429 -0.333638
vt 0.547066 -0.226123
vt 0.535349 -0.225168
vt 0.521183 -0.271726
vt 0.534967 -0.271982
vt 0.549473 -0.195399
vt 0.537764 -0.194254
vt 0.522664 -0.437076
vt 0.520304 -0.437435
vt 0.538063 -0.536474
vt 0.527666 -0.331991
vt 0.508812 -0.331328
vt 0.526620 -0.329696
vt 0.517502 -0.437158
vt 0.501048 -0.438071
vt 0.517100 -0.437201
vt 0.496671 -0.437441
vt 0.496370 -0.436904
vt 0.522208 -0.437052
vn -0.023785 -0.100759 0.994627
vn -0.029024 -0.127407 0.991426
vn -0.038192 -0.116553 0.992450
vn -0.041920 -0.152378 0.987433
vn -0.088358 0.354901 0.930719
vn -0.103440 0.329806 0.938365
vn -0.099561 0.369906 0.923719
vn -0.129059 0.353689 0.926417
vn -0.134296 0.918888 0.370957
vn -0.132243 0.916640 0.377205
vn -0.132736 0.917185 0.375703
vn -0.130996 0.916382 0.378265
vn -0.065012 -0.924547 0.375481
vn -0.041847 -0.933980 0.354866
vn -0.052733 -0.938056 0.342449
vn -0.031530 -0.945500 0.324093
vn -0.131593 0.915437 0.380341
vn -0.132220 0.913662 0.384369
vn 0.086540 0.920933 0.379991
vn 0.085572 0.916466 0.390854
vn -0.030325 0.924568 0.379808
vn -0.031401 0.920179 0.390236
vn -0.030103 0.928159 0.370966
vn 0.087774 0.924604 0.370679
vn -0.006557 0.384777 0.922986
vn 0.099705 0.391451 0.914782
vn 0.003399 0.394243 0.919000
vn 0.098523 0.390377 0.915368
vn 0.027611 -0.171674 0.984767
vn 0.098345 -0.172670 0.980058
vn 0.032931 -0.179349 0.983234
vn 0.108170 -0.161417 0.980940
vn 0.012072 -0.916127 0.400705
vn -0.021841 -0.950254 0.310709
vn -0.046489 -0.943580 0.327866
vn -0.127874 -0.968215 0.214962
vn -0.028680 -0.940107 0.339671
vn -0.052000 -0.942411 0.330389
vn -0.071392 -0.958900 0.274616
vn -0.080435 -0.961258 0.263655
vn -0.168493 -0.973440 0.154998
vn -0.193931 -0.970489 0.143327
vn 0.066625 -0.152951 0.985985
vn -0.086355 -0.147320 0.985312
vn -0.102314 -0.146528 0.983901
vn -0.241546 0.318609 0.916594
vn -0.101490 0.359767 0.927506
vn -0.225937 0.323615 0.918817
vn -0.193395 0.906103 0.376266
vn -0.164966 0.909759 0.380953
vn -0.162531 0.911564 0.377672
vn -0.148460 0.913130 0.379675
vn -0.195194 0.906441 0.374519
vn -0.162558 0.911786 0.377123
vn 0.068503 -0.250186 0.965771
vn -0.022545 -0.246447 0.968894
vn -0.028134 -0.246151 0.968823
vn -0.112539 0.353734 0.928551
vn 0.045703 0.385769 0.921463
vn -0.110672 0.354170 0.928609
vn 0.097788 0.391327 0.915041
vn 0.000731 0.394466 0.918910
vn -0.093087 0.400585 0.911519
vn -0.091030 0.396265 0.913612
vn -0.098615 0.412885 0.905429
vn -0.060994 0.353781 0.933338
vn -0.090358 0.408742 0.908166
vn -0.068786 0.346378 0.935570
vn -0.226629 0.324403 0.918369
vn -0.097906 -0.241793 0.965376
vn -0.056212 0.311945 0.948436
vn -0.056286 0.311943 0.948432
vn -0.341569 -0.149848 0.927834
vn -0.309608 -0.144873 0.939763
vn -0.081216 -0.106210 0.991021
vn -0.012656 -0.093607 0.995529
vn -0.323665 0.290436 0.900493
vn -0.184936 -0.141797 0.972467
vn 0.993348 0.113288 0.020623
vn 0.999073 -0.016463 0.039773
vn 0.994962 0.096805 0.026068
vn 0.999080 -0.016455 0.039604
vn 0.971844 0.233910 0.028385
vn 0.971788 0.234069 0.028999
vn -0.990458 -0.122146 -0.063821
vn -0.955849 -0.293738 -0.008426
vn -0.993135 -0.097923 -0.063987
vn -0.955871 -0.293672 -0.008182
vn -0.996735 0.072608 -0.035326
vn -0.996776 0.072557 -0.034241
vn 0.995783 0.087842 0.026448
vn 0.999661 -0.020869 0.015555
vn 0.996645 0.077910 0.025092
vn 0.999669 -0.020814 0.015146
vn 0.983555 0.180570 -0.003821
vn 0.983567 0.180497 -0.004092
vn -0.995122 -0.090794 -0.038571
vn -0.969471 -0.243942 0.024849
vn -0.996450 -0.077057 -0.033912
vn -0.969500 -0.243757 0.025527
vn -0.996260 0.086340 -0.003482
vn -0.996273 0.086217 -0.002591
vn -0.023784 -0.100759 -0.994627
vn -0.038192 -0.116553 -0.992450
vn -0.029024 -0.127407 -0.991426
vn -0.041920 -0.152378 -0.987433
vn -0.088358 0.354901 -0.930719
vn -0.099561 0.369906 -0.923719
vn -0.103440 0.329806 -0.938365
vn -0.129059 0.353689 -0.926417
vn -0.130996 0.916382 -0.378265
vn -0.132243 0.916640 -0.377205
vn -0.132736 0.917185 -0.375703
vn -0.134296 0.918888 -0.370957
vn -0.046324 -0.945241 -0.323070
vn -0.054470 -0.938049 -0.342194
vn -0.061600 -0.940263 -0.334831
vn -0.069430 -0.932595 -0.354183
vn -0.131593 0.915437 -0.380341
vn -0.132220 0.913662 -0.384369
vn -0.031401 0.920179 -0.390236
vn 0.085572 0.916466 -0.390854
vn -0.030325 0.924568 -0.379808
vn 0.086540 0.920933 -0.379991
vn -0.030103 0.928159 -0.370966
vn 0.087774 0.924604 -0.370679
vn -0.006557 0.384777 -0.922986
vn 0.003399 0.394243 -0.919000
vn 0.099705 0.391450 -0.914782
vn 0.098523 0.390377 -0.915368
vn 0.027611 -0.171674 -0.984767
vn 0.032931 -0.179349 -0.983234
vn 0.098345 -0.172670 -0.980058
vn 0.108170 -0.161417 -0.980940
vn 0.012259 -0.929537 -0.368526
vn -0.041132 -0.948853 -0.313029
vn -0.000311 -0.953487 -0.301434
vn -0.105092 -0.970823 -0.215542
vn -0.028680 -0.940107 -0.339671
vn -0.071392 -0.958900 -0.274616
vn -0.052000 -0.942411 -0.330389
vn -0.080436 -0.961258 -0.263655
vn -0.193931 -0.970489 -0.143327
vn -0.168493 -0.973440 -0.154998
vn 0.066630 -0.152952 -0.985985
vn -0.102314 -0.146530 -0.983901
vn -0.086355 -0.147322 -0.985312
vn -0.241552 0.318609 -0.916592
vn -0.225940 0.323618 -0.918816
vn -0.101479 0.359783 -0.927501
vn -0.193395 0.906103 -0.376266
vn -0.162530 0.911564 -0.377671
vn -0.164967 0.909758 -0.380954
vn -0.148461 0.913130 -0.379675
vn -0.162558 0.911786 -0.377123
vn -0.195194 0.906441 -0.374519
vn 0.068491 -0.250189 -0.965771
vn -0.028134 -0.246148 -0.968824
vn -0.022551 -0.246444 -0.968895
vn -0.112545 0.353732 -0.928551
vn -0.110676 0.354168 -0.928610
vn 0.045709 0.385760 -0.921466
vn 0.000732 0.394466 -0.918910
vn 0.097788 0.391327 -0.915041
vn -0.093087 0.400585 -0.911519
vn -0.091030 0.396265 -0.913612
vn -0.098615 0.412885 -0.905429
vn -0.090358 0.408742 -0.908166
vn -0.060994 0.353780 -0.933338
vn -0.068786 0.346378 -0.935570
vn -0.226640 0.324405 -0.918366
vn -0.097898 -0.241787 -0.965378
vn -0.056212 0.311945 -0.948436
vn -0.056286 0.311943 -0.948432
vn -0.012656 -0.093607 -0.995529
vn -0.309608 -0.144873 -0.939763
vn -0.081216 -0.106210 -0.991021
vn -0.341569 -0.149848 -0.927834
vn -0.323680 0.290426 -0.900491
vn -0.184939 -0.141798 -0.972466
vn 0.993348 0.113291 -0.020638
vn 0.994961 0.096807 -0.026082
vn 0.999073 -0.016463 -0.039773
vn 0.999080 -0.016456 -0.039604
vn 0.971787 0.234069 -0.029006
vn 0.971843 0.233911 -0.028392
vn -0.990458 -0.122146 0.063821
vn -0.993135 -0.097924 0.063988
vn -0.955848 -0.293740 0.008433
vn -0.955871 -0.293674 0.008188
vn -0.996776 0.072557 0.034241
vn -0.996735 0.072608 0.035326
vn 0.995783 0.087844 -0.026448
vn 0.996644 0.077912 -0.025092
vn 0.999661 -0.020871 -0.015552
vn 0.999669 -0.020815 -0.015143
vn 0.983566 0.180502 0.004088
vn 0.983554 0.180574 0.003818
vn -0.995123 -0.090794 0.038563
vn -0.996450 -0.077057 0.033906
vn -0.969471 -0.243943 -0.024846
vn -0.969500 -0.243758 -0.025524
vn -0.996273 0.086213 0.002588
vn -0.996260 0.086336 0.003478
vn -0.119612 0.307826 0.943894
vn -0.024586 -0.097243 0.994957
vn -0.059601 -0.098732 0.993328
vn -0.024585 -0.097243 -0.994957
vn -0.059601 -0.098731 -0.993328
vn -0.119612 0.307826 -0.943894
s 1
g polySurface1 pCylinder5
usemtl blinn2SG
f 83/1/1 99/2/2 82/4/3
f 82/4/3 99/2/2 100/3/4
s 2
f 81/5/5 82/4/6 101/6/7
f 101/6/7 82/4/6 100/3/8
s 3
f 102/8/9 103/9/10 94/7/11
f 94/7/11 103/9/10 93/10/12
s 4
f 97/12/13 98/13/14 85/11/15
f 85/11/15 98/13/14 84/14/16
s 3
f 93/10/12 103/9/10 92/16/17
f 92/16/17 103/9/10 104/15/18
f 9/18/19 8/19/20 6/17/21
f 6/17/21 8/19/20 1/20/22
f 5/21/23 10/22/24 6/17/21
f 6/17/21 10/22/24 9/18/19
s 2
f 4/23/25 11/24/26 28/26/27
f 28/26/27 11/24/26 27/25/28
s 1
f 3/27/29 12/28/30 4/23/31
f 4/23/31 12/28/30 11/24/32
s 4
f 2/29/33 14/30/34 7/32/35
f 7/32/35 14/30/34 13/31/36
f 21/33/37 20/34/38 22/36/39
f 22/36/39 20/34/38 19/35/40
f 22/36/39 19/35/40 23/37/41
f 23/37/41 19/35/40 18/38/42
s 10
f 35/39/43 36/40/44 37/41/45
s 11
f 38/42/46 35/39/47 37/41/48
s 3
f 25/43/49 24/44/50 16/46/51
f 16/46/51 24/44/50 17/45/52
f 25/43/49 16/46/51 26/47/53
f 26/47/53 16/46/51 15/48/54
s 13
f 40/49/55 41/50/56 42/51/57
s 14
f 43/52/58 40/49/59 42/51/60
s 2
f 27/25/28 10/22/61 28/26/27
f 28/26/27 10/22/61 5/21/62
f 94/7/63 81/5/5 102/8/64
f 102/8/64 81/5/5 101/6/7
f 24/44/65 30/53/66 17/45/67
f 17/45/67 30/53/66 29/54/68
s 14
f 43/52/58 42/51/60 44/55/69
s 13
f 42/51/57 41/50/56 44/55/70
s 2
f 30/53/66 32/56/71 29/54/68
f 29/54/68 32/56/71 33/57/72
s 17
f 23/37/73 18/38/74 32/56/75
f 32/56/75 18/38/74 33/57/76
s 11
f 37/41/48 39/58/77 38/42/46
s 10
f 36/40/44 39/58/78 37/41/45
s 18
f 33/57/79 18/38/80 35/39/81
f 35/39/81 18/38/80 36/40/82
f 33/57/79 35/39/81 29/54/83
f 29/54/83 35/39/81 38/42/84
s 19
f 34/59/85 29/54/86 39/58/87
f 39/58/87 29/54/86 38/42/88
f 34/59/85 39/58/87 18/38/89
f 18/38/89 39/58/87 36/40/90
s 20
f 31/60/91 23/37/92 40/49/93
f 40/49/93 23/37/92 41/50/94
f 31/60/91 40/49/93 30/53/95
f 30/53/95 40/49/93 43/52/96
s 21
f 32/56/97 30/53/98 44/55/99
f 44/55/99 30/53/98 43/52/100
f 32/56/97 44/55/99 23/37/101
f 23/37/101 44/55/99 41/50/102
s 22
f 87/61/103 88/62/104 95/64/105
f 95/64/105 88/62/104 108/63/106
s 23
f 89/65/107 107/66/108 88/62/109
f 88/62/109 107/66/108 108/63/110
s 24
f 91/68/111 105/69/112 90/67/113
f 90/67/113 105/69/112 106/70/114
s 25
f 86/72/115 96/73/116 85/71/117
f 85/71/117 96/73/116 97/74/118
s 24
f 91/68/111 92/75/119 105/69/112
f 105/69/112 92/75/119 104/76/120
f 1/78/121 8/79/122 48/77/123
f 48/77/123 8/79/122 50/80/124
f 47/81/125 48/77/123 51/82/126
f 51/82/126 48/77/123 50/80/124
s 23
f 46/83/127 64/84/128 52/86/129
f 52/86/129 64/84/128 63/85/130
s 22
f 45/87/131 46/83/132 53/88/133
f 53/88/133 46/83/132 52/86/134
s 25
f 2/89/135 49/90/136 14/92/137
f 14/92/137 49/90/136 54/91/138
f 21/93/139 59/94/140 20/96/141
f 20/96/141 59/94/140 58/95/142
f 57/98/143 58/95/142 60/97/144
f 60/97/144 58/95/142 59/94/140
s 32
f 71/99/145 73/100/146 72/101/147
s 33
f 74/102/148 73/100/149 71/99/150
s 24
f 62/103/151 55/104/152 61/106/153
f 61/106/153 55/104/152 56/105/154
f 15/108/155 55/104/152 26/107/156
f 26/107/156 55/104/152 62/103/151
s 36
f 76/109/157 78/110/158 77/111/159
s 37
f 79/112/160 78/110/161 76/109/162
s 23
f 47/81/163 51/82/164 64/84/128
f 64/84/128 51/82/164 63/85/130
f 90/67/165 106/70/166 89/65/107
f 89/65/107 106/70/166 107/66/108
f 61/106/167 56/105/168 66/114/169
f 66/114/169 56/105/168 65/113/170
s 37
f 79/112/160 80/115/171 78/110/161
s 36
f 78/110/158 80/115/172 77/111/159
s 23
f 66/114/169 65/113/170 68/117/173
f 68/117/173 65/113/170 69/116/174
s 39
f 69/116/175 57/98/176 68/117/177
f 68/117/177 57/98/176 60/97/178
s 33
f 73/100/149 74/102/148 75/118/179
s 32
f 72/101/147 73/100/146 75/118/180
s 40
f 69/116/181 71/99/182 57/98/183
f 57/98/183 71/99/182 72/101/184
f 74/102/185 71/99/182 65/113/186
f 65/113/186 71/99/182 69/116/181
s 41
f 70/119/187 75/118/188 65/113/189
f 65/113/189 75/118/188 74/102/190
f 72/101/191 75/118/188 57/98/192
f 57/98/192 75/118/188 70/119/187
s 42
f 67/120/193 76/109/194 60/97/195
f 60/97/195 76/109/194 77/111/196
f 79/112/197 76/109/194 66/114/198
f 66/114/198 76/109/194 67/120/193
s 43
f 68/117/199 80/115/200 66/114/201
f 66/114/201 80/115/200 79/112/202
f 77/111/203 80/115/200 60/97/204
f 60/97/204 80/115/200 68/117/199
s 2
f 29/54/68 34/59/205 81/5/5
f 81/5/5 34/59/205 82/4/6
s 1
f 18/38/206 83/1/1 34/59/207
f 34/59/207 83/1/1 82/4/3
s 4
f 85/11/15 84/14/16 20/34/38
f 20/34/38 84/14/16 19/35/40
s 25
f 58/95/142 86/72/115 20/96/141
f 20/96/141 86/72/115 85/71/117
s 22
f 57/98/208 70/119/209 87/61/103
f 87/61/103 70/119/209 88/62/104
s 23
f 65/113/170 89/65/107 70/119/210
f 70/119/210 89/65/107 88/62/109
f 56/105/168 90/67/165 65/113/170
f 65/113/170 90/67/165 89/65/107
s 24
f 55/104/152 91/68/111 56/105/154
f 56/105/154 91/68/111 90/67/113
f 55/104/152 15/108/155 91/68/111
f 91/68/111 15/108/155 92/75/119
s 3
f 16/46/51 93/10/12 15/48/54
f 15/48/54 93/10/12 92/16/17
f 94/7/11 93/10/12 17/45/52
f 17/45/52 93/10/12 16/46/51
s 2
f 81/5/5 94/7/63 29/54/68
f 29/54/68 94/7/63 17/45/67
s 25
f 96/73/116 49/90/136 97/74/118
f 97/74/118 49/90/136 2/89/135
s 4
f 98/13/14 97/12/13 7/32/35
f 7/32/35 97/12/13 2/29/33
s 1
f 99/2/2 3/27/29 100/3/4
f 100/3/4 3/27/29 4/23/31
s 2
f 100/3/8 4/23/25 101/6/7
f 101/6/7 4/23/25 28/26/27
f 101/6/7 28/26/27 102/8/64
f 102/8/64 28/26/27 5/21/62
s 3
f 103/9/10 102/8/9 6/17/21
f 6/17/21 102/8/9 5/21/23
f 103/9/10 6/17/21 104/15/18
f 104/15/18 6/17/21 1/20/22
s 24
f 105/69/112 104/76/120 48/77/123
f 48/77/123 104/76/120 1/78/121
f 105/69/112 48/77/123 106/70/114
f 106/70/114 48/77/123 47/81/125
s 23
f 107/66/108 106/70/166 64/84/128
f 64/84/128 106/70/166 47/81/163
f 108/63/110 107/66/108 46/83/127
f 46/83/127 107/66/108 64/84/128
s 22
f 95/64/105 108/63/106 45/87/131
f 45/87/131 108/63/106 46/83/132
