# This file uses centimeters as units for non-parametric coordinates.

mtllib SideFin_L.mtl
g default
v 0.817369 -0.199447 -1.123503
v -0.760394 0.098195 -1.158320
v 0.817369 0.843795 -1.012697
v -0.760394 0.374189 -0.725508
v 1.551866 -0.082386 -1.149345
v 1.551866 0.504583 -1.083293
v 0.605442 -0.211222 -0.503026
v -0.687325 -0.048342 -0.537843
v 0.605442 0.170422 -0.392220
v -0.687325 0.219601 -0.500438
v 1.329970 -0.147162 -0.528867
v 1.329970 0.137481 -0.462816
v 0.963281 -0.761042 1.070634
v 0.015384 -0.662905 1.035817
v 0.963281 -0.484880 1.181440
v 0.015384 -0.501465 1.073221
v 1.404556 -0.722445 1.044792
v 1.404556 -0.550943 1.110844
v 1.349740 -0.987473 1.698106
v 0.538449 -0.897956 1.663289
v 1.349740 -0.713058 1.808913
v 0.538449 -0.750699 1.700694
v 1.727420 -0.952267 1.672264
v 1.727420 -0.795832 1.738317
v 1.984956 -1.011278 1.968029
v 1.629514 -0.961826 1.943782
v 1.984956 -0.890123 2.045200
v 1.629514 -0.880344 1.969833
v 2.150425 -0.991835 1.950033
v 2.150425 -0.905294 1.996035
v -0.661178 0.403720 -0.743568
v -0.606030 0.216508 -0.493633
v 0.074992 -0.500422 1.080026
v 0.589467 -0.748332 1.707499
v 1.651866 -0.880959 1.974572
v 1.651866 -0.964936 1.945307
v 0.589467 -0.903585 1.665479
v 0.074992 -0.669076 1.038007
v -0.606030 -0.058585 -0.535653
v -0.661178 0.079478 -1.156131
v 0.197695 -0.082547 -1.137178
v 0.097702 -0.147250 -0.516700
v 0.590991 -0.722498 1.056959
v 1.031102 -0.952315 1.684432
v 1.845355 -0.991855 1.958506
v 1.845355 -0.886282 2.015599
v 1.031102 -0.727841 1.766409
v 0.590991 -0.491394 1.138936
v 0.097702 0.189737 -0.434723
v 0.197695 0.659355 -0.899902
v -1.271224 0.351557 -1.082958
v -0.093632 0.720475 -1.037476
v 0.755996 0.986647 -1.004662
v 1.714419 1.011278 -1.080687
v 1.714419 -0.022730 -1.841111
v 0.755996 0.037195 -2.045200
v -0.078636 0.079869 -2.025503
v -1.235444 0.139015 -1.998203
v -1.369078 0.145848 -2.001436
v -1.407259 0.308940 -1.088212
vt 0.425630 0.217517
vt 0.438159 0.214817
vt 0.435413 0.223622
vt 0.423268 0.224719
vt 0.447198 0.212869
vt 0.456230 0.214741
vt 0.453971 0.221968
vt 0.444176 0.222831
vt 0.220185 0.350861
vt 0.276720 0.335532
vt 0.279699 0.322175
vt 0.234748 0.330808
vt 0.255613 0.399413
vt 0.214377 0.375000
vt 0.226414 0.355057
vt 0.269826 0.351507
vt 0.209613 0.372180
vt 0.213654 0.352632
vt 0.229556 0.331805
vt 0.221399 0.355467
vt 0.317510 0.324473
vt 0.357217 0.334889
vt 0.352938 0.321598
vt 0.312130 0.315947
vt 0.339172 0.386918
vt 0.344564 0.346412
vt 0.285365 0.417027
vt 0.301148 0.348945
vt 0.344878 0.250843
vt 0.312234 0.256192
vt 0.307304 0.270859
vt 0.338393 0.270644
vt 0.308463 0.256810
vt 0.303713 0.270884
vt 0.393187 0.250512
vt 0.368431 0.246984
vt 0.388432 0.265142
vt 0.360823 0.270488
vt 0.385377 0.222216
vt 0.357311 0.227097
vt 0.352809 0.240559
vt 0.379103 0.241419
vt 0.354068 0.227661
vt 0.349772 0.240459
vt 0.426704 0.221954
vt 0.405626 0.218694
vt 0.422431 0.235227
vt 0.398074 0.242040
vt 0.424183 0.217829
vt 0.421865 0.224845
vt 0.234789 0.406772
vt 0.175966 0.374821
vt 0.277230 0.429824
vt 0.332672 0.432400
vt 0.357337 0.348626
vt 0.297145 0.355924
vt 0.245857 0.360510
vt 0.174772 0.366867
vt 0.166560 0.367601
vt 0.169170 0.371130
vn -0.142031 -0.486779 0.861901
vn -0.167675 -0.452347 0.875938
vn -0.167958 -0.379952 0.909630
vn -0.203395 -0.320300 0.925224
vn 0.149494 -0.464099 0.873077
vn 0.175323 -0.498120 0.849199
vn 0.034837 -0.528010 0.848523
vn 0.034073 -0.525552 0.850079
vn -0.176945 -0.963762 -0.199631
vn -0.154675 -0.979080 -0.132200
vn -0.154916 -0.972272 -0.175183
vn -0.120828 -0.985123 -0.122201
vn -0.071452 0.699625 0.710929
vn -0.066562 0.744353 0.664460
vn -0.059407 0.715009 0.696587
vn -0.020051 0.798079 0.602219
vn -0.987466 -0.133075 0.084859
vn -0.986092 -0.118989 0.116039
vn -0.986706 -0.123948 0.105114
vn -0.958058 -0.039619 0.283821
vn 0.155588 -0.986686 -0.047367
vn 0.125510 -0.991871 -0.020982
vn 0.119918 -0.992653 -0.016092
vn 0.088468 -0.996015 0.011315
vn 0.947517 -0.035751 0.317700
vn 0.945367 -0.051222 0.321960
vn 0.946775 -0.041297 0.319236
vn 0.941355 -0.076272 0.328686
vn 0.389409 0.724944 0.568170
vn 0.248940 0.700975 0.668328
vn 0.230003 0.696267 0.679934
vn 0.102667 0.656384 0.747408
vn -0.110044 -0.941727 -0.317870
vn -0.108317 -0.942754 -0.315410
vn -0.091740 -0.943434 -0.318615
vn -0.088964 -0.945183 -0.314188
vn -0.000247 0.909814 0.415016
vn -0.048779 0.908580 0.414853
vn -0.004507 0.912566 0.408905
vn -0.055359 0.913280 0.403552
vn -0.920739 -0.053947 0.386432
vn -0.920792 -0.055017 0.386154
vn -0.921789 -0.083229 0.378654
vn -0.921870 -0.087464 0.377498
vn 0.070566 -0.936580 -0.343277
vn 0.069618 -0.936572 -0.343491
vn 0.064833 -0.936520 -0.344568
vn 0.061689 -0.936473 -0.345271
vn 0.999026 0.009976 -0.042987
vn 0.999015 0.015029 -0.041742
vn 0.999026 0.010223 -0.042926
vn 0.999010 0.015986 -0.041506
vn 0.077990 0.926516 0.368084
vn 0.155969 0.911784 0.379899
vn 0.090895 0.924496 0.370197
vn 0.196603 0.901676 0.385135
vn -0.088420 -0.954676 -0.284212
vn -0.089187 -0.954357 -0.285042
vn -0.091658 -0.954406 -0.284093
vn -0.092225 -0.953777 -0.286014
vn -0.063037 0.909194 0.411573
vn -0.086602 0.907500 0.411028
vn -0.068357 0.911469 0.405649
vn -0.090057 0.913292 0.397224
vn -0.787135 -0.139217 0.600864
vn -0.787074 -0.140486 0.600649
vn -0.786549 -0.150444 0.598922
vn -0.786456 -0.152057 0.598636
vn 0.059335 -0.926747 -0.370972
vn 0.059743 -0.926736 -0.370933
vn 0.060449 -0.926717 -0.370866
vn 0.061013 -0.926701 -0.370812
vn 0.900387 0.156375 -0.406018
vn 0.900573 0.157968 -0.404986
vn 0.901497 0.166292 -0.399563
vn 0.901694 0.168185 -0.398323
vn 0.180691 0.954823 0.235930
vn 0.226666 0.944653 0.237179
vn 0.198478 0.951150 0.236474
vn 0.250124 0.938603 0.237617
vn -0.116533 -0.965632 0.232326
vn -0.116850 -0.966249 0.229584
vn -0.148084 -0.940008 0.307338
vn -0.147070 -0.952000 0.268451
vn -0.134978 0.561003 0.816735
vn -0.164636 0.493360 0.854102
vn -0.135054 0.562913 0.815408
vn -0.158697 0.533629 0.830696
vn -0.259169 -0.237779 0.936105
vn -0.259039 -0.239364 0.935737
vn -0.254840 -0.286677 0.923511
vn -0.254076 -0.294532 0.921247
vn 0.072398 -0.964120 -0.255403
vn 0.073041 -0.963933 -0.255925
vn 0.080303 -0.961771 -0.261818
vn 0.084068 -0.960614 -0.264866
vn 0.539844 0.327432 -0.775472
vn 0.540753 0.332339 -0.772747
vn 0.547770 0.373562 -0.748599
vn 0.550513 0.391845 -0.737152
vn 0.231296 0.967402 0.103130
vn 0.173808 0.972815 0.153042
vn 0.225535 0.968207 0.108213
vn 0.142564 0.973384 0.179439
vn -0.043034 0.798687 0.600206
vn -0.129927 0.797118 0.589679
vn -0.063876 0.897407 0.436555
vn -0.000296 0.909057 0.416672
vn -0.098591 0.895215 0.434592
vn -0.063085 0.908362 0.413398
vn -0.182573 0.371268 0.910400
vn -0.135006 0.560297 0.817215
vn -0.124191 -0.322928 0.938240
vn -0.205788 -0.298006 0.932118
vn -0.116540 -0.965356 0.233466
vn -0.152556 -0.912642 0.379225
vn -0.088418 -0.954753 -0.283952
vn -0.093232 -0.955293 -0.280577
vn -0.110040 -0.941499 -0.318546
vn -0.086027 -0.940827 -0.327786
vn -0.176986 -0.962322 -0.206429
vn -0.123483 -0.970750 -0.205906
vn -0.154373 -0.982920 -0.100185
vn -0.183039 -0.979754 -0.081111
vn -0.108423 -0.944365 -0.310514
vn -0.086566 -0.946460 -0.310999
vn -0.088992 -0.953681 -0.287356
vn -0.092895 -0.953459 -0.286856
vn -0.116493 -0.971726 0.205373
vn -0.150754 -0.950721 0.270929
vn -0.134469 0.576726 0.805795
vn -0.161926 0.529936 0.832435
vn -0.066249 0.918739 0.389269
vn -0.094652 0.915430 0.391189
vn -0.003802 0.917930 0.396724
vn -0.061191 0.916413 0.395528
vn -0.073455 0.688206 0.721787
vn -0.054830 0.696832 0.715135
vn -0.289337 0.880883 0.374605
vn -0.276877 0.874623 0.397961
vn -0.180096 0.822820 0.539011
vn -0.122701 0.784215 0.608236
vn -0.223840 0.622001 0.750340
vn -0.203505 0.595818 0.776909
vn 0.074671 0.186197 0.979671
vn 0.173524 0.019164 0.984643
vn 0.079614 -0.021853 0.996586
vn 0.080498 -0.026668 0.996398
vn 0.081254 -0.030790 0.996218
vn 0.081332 -0.031216 0.996198
vn 0.877948 -0.283641 0.385688
vn 0.914873 -0.211882 0.343676
vn 0.950321 -0.119878 0.287261
vn 0.973655 -0.025499 0.226595
vn -0.007716 -0.968681 -0.248191
vn 0.040502 -0.980775 -0.190895
vn 0.037424 -0.980170 -0.194593
vn 0.155539 -0.986637 -0.048536
vn -0.087604 -0.990468 -0.106294
vn -0.094011 -0.977897 -0.186759
vn -0.143536 -0.975542 -0.166482
vn -0.175251 -0.956344 -0.233868
vn -0.052402 -0.998121 -0.031747
vn -0.107269 -0.992092 -0.065170
vn -0.050572 -0.998522 -0.019925
vn -0.177632 -0.982684 0.052710
vn -0.290588 -0.943974 0.156435
vn -0.263790 -0.913104 0.310895
vn -0.276638 -0.929836 0.242646
vn -0.211527 -0.824080 0.525498
vn -0.232667 0.933334 0.273410
vn -0.291504 0.886045 0.360485
s 1
g polySurface5 pCylinder5
usemtl blinn2SG
f 45/2/1 46/3/2 36/1/3
f 36/1/3 46/3/2 35/4/4
f 29/6/5 30/7/6 25/5/7
f 25/5/7 30/7/6 27/8/8
s 3
f 40/9/9 41/10/10 39/12/11
f 39/12/11 41/10/10 42/11/12
s 4
f 50/13/13 31/14/14 49/16/15
f 49/16/15 31/14/14 32/15/16
s 5
f 2/18/17 8/19/18 4/17/19
f 4/17/19 8/19/18 10/20/20
s 6
f 5/22/21 11/23/22 1/21/23
f 1/21/23 11/23/22 7/24/24
s 7
f 6/25/25 12/26/26 5/22/27
f 5/22/27 12/26/26 11/23/28
s 8
f 6/25/29 3/27/30 12/26/31
f 12/26/31 3/27/30 9/28/32
s 9
f 39/12/33 42/11/34 38/30/35
f 38/30/35 42/11/34 43/29/36
s 10
f 32/15/37 33/31/38 49/16/39
f 49/16/39 33/31/38 48/32/40
s 11
f 10/20/41 8/19/42 16/34/43
f 16/34/43 8/19/42 14/33/44
s 12
f 7/24/45 11/23/46 13/36/47
f 13/36/47 11/23/46 17/35/48
s 13
f 12/26/49 18/37/50 11/23/51
f 11/23/51 18/37/50 17/35/52
s 14
f 9/28/53 15/38/54 12/26/55
f 12/26/55 15/38/54 18/37/56
s 15
f 38/30/57 43/29/58 37/40/59
f 37/40/59 43/29/58 44/39/60
s 16
f 33/31/61 34/41/62 48/32/63
f 48/32/63 34/41/62 47/42/64
s 17
f 16/34/65 14/33/66 22/44/67
f 22/44/67 14/33/66 20/43/68
s 18
f 13/36/69 17/35/70 19/46/71
f 19/46/71 17/35/70 23/45/72
s 19
f 17/35/73 18/37/74 23/45/75
f 23/45/75 18/37/74 24/47/76
s 20
f 15/38/77 21/48/78 18/37/79
f 18/37/79 21/48/78 24/47/80
s 21
f 37/40/81 44/39/82 36/1/83
f 36/1/83 44/39/82 45/2/84
s 22
f 34/41/85 35/4/86 47/42/87
f 47/42/87 35/4/86 46/3/88
s 23
f 22/44/89 20/43/90 28/50/91
f 28/50/91 20/43/90 26/49/92
s 24
f 19/46/93 23/45/94 25/5/95
f 25/5/95 23/45/94 29/6/96
s 25
f 23/45/97 24/47/98 29/6/99
f 29/6/99 24/47/98 30/7/100
s 26
f 21/48/101 27/8/102 24/47/103
f 24/47/103 27/8/102 30/7/104
s 4
f 32/15/16 31/14/14 10/20/105
f 10/20/105 31/14/14 4/17/106
s 10
f 33/31/38 32/15/37 16/34/107
f 16/34/107 32/15/37 10/20/108
s 16
f 34/41/62 33/31/61 22/44/109
f 22/44/109 33/31/61 16/34/110
s 22
f 35/4/86 34/41/85 28/50/111
f 28/50/111 34/41/85 22/44/112
s 1
f 36/1/3 35/4/4 26/49/113
f 26/49/113 35/4/4 28/50/114
s 21
f 20/43/115 37/40/81 26/49/116
f 26/49/116 37/40/81 36/1/83
s 15
f 14/33/117 38/30/57 20/43/118
f 20/43/118 38/30/57 37/40/59
s 9
f 8/19/119 39/12/33 14/33/120
f 14/33/120 39/12/33 38/30/35
s 3
f 2/18/121 40/9/9 8/19/122
f 8/19/122 40/9/9 39/12/11
f 42/11/12 41/10/10 7/24/123
f 7/24/123 41/10/10 1/21/124
s 9
f 42/11/34 7/24/125 43/29/36
f 43/29/36 7/24/125 13/36/126
s 15
f 43/29/58 13/36/127 44/39/60
f 44/39/60 13/36/127 19/46/128
s 21
f 44/39/82 19/46/129 45/2/84
f 45/2/84 19/46/129 25/5/130
s 1
f 46/3/2 45/2/1 27/8/8
f 27/8/8 45/2/1 25/5/7
s 22
f 47/42/87 46/3/88 21/48/131
f 21/48/131 46/3/88 27/8/132
s 16
f 48/32/63 47/42/64 15/38/133
f 15/38/133 47/42/64 21/48/134
s 10
f 49/16/39 48/32/40 9/28/135
f 9/28/135 48/32/40 15/38/136
s 4
f 3/27/137 50/13/13 9/28/138
f 9/28/138 50/13/13 49/16/15
s 27
f 51/52/139 31/14/140 52/51/141
f 52/51/141 31/14/140 50/13/142
s 28
f 52/51/143 50/13/144 53/53/145
f 53/53/145 50/13/144 3/27/146
s 29
f 53/53/147 3/27/148 54/54/149
f 54/54/149 3/27/148 6/25/150
s 30
f 54/54/151 6/25/152 55/55/153
f 55/55/153 6/25/152 5/22/154
s 31
f 56/56/155 55/55/156 1/21/157
f 1/21/157 55/55/156 5/22/158
s 32
f 57/57/159 56/56/160 41/10/161
f 41/10/161 56/56/160 1/21/162
f 58/58/163 57/57/159 40/9/164
f 40/9/164 57/57/159 41/10/161
f 59/59/165 58/58/163 2/18/166
f 2/18/166 58/58/163 40/9/164
s 33
f 59/59/167 2/18/168 60/60/169
f 60/60/169 2/18/168 4/17/170
s 27
f 31/14/140 51/52/139 4/17/171
f 4/17/171 51/52/139 60/60/172
