# This file uses centimeters as units for non-parametric coordinates.

mtllib SideFin_R.mtl
g default
v 0.860664 -0.211424 1.125457
v -0.717099 0.086218 1.160273
v 0.860664 0.831818 1.014651
v -0.717099 0.362213 0.727462
v 1.595161 -0.094362 1.151298
v 1.595161 0.492607 1.085246
v 0.648737 -0.223199 0.504979
v -0.644030 -0.060319 0.539796
v 0.648737 0.158445 0.394173
v -0.644030 0.207624 0.502392
v 1.373265 -0.159139 0.530821
v 1.373265 0.125504 0.464769
v 1.006576 -0.773018 -1.068680
v 0.058679 -0.674881 -1.033863
v 1.006576 -0.496857 -1.179486
v 0.058679 -0.513441 -1.071267
v 1.447851 -0.734422 -1.042838
v 1.447851 -0.562920 -1.108890
v 1.393035 -0.999450 -1.696153
v 0.581744 -0.909932 -1.661336
v 1.393035 -0.725035 -1.806959
v 0.581744 -0.762675 -1.698740
v 1.770715 -0.964243 -1.670311
v 1.770715 -0.807809 -1.736363
v 2.028251 -1.023254 -1.966076
v 1.672810 -0.973802 -1.941829
v 2.028251 -0.902099 -2.043247
v 1.672810 -0.892321 -1.967879
v 2.193721 -1.003811 -1.948079
v 2.193721 -0.917271 -1.994081
v -0.617882 0.067501 1.158084
v -0.562735 -0.070561 0.537607
v 0.118287 -0.681052 -1.036053
v 0.632762 -0.915562 -1.663525
v 1.695162 -0.976912 -1.943354
v 1.695162 -0.892935 -1.972618
v 0.632762 -0.760308 -1.705545
v 0.118287 -0.512399 -1.078072
v -0.562735 0.204531 0.495587
v -0.617882 0.391743 0.745522
v 0.240990 0.647379 0.901856
v 0.140997 0.177760 0.436677
v 0.634286 -0.503371 -1.136983
v 1.074397 -0.739818 -1.764456
v 1.888650 -0.898259 -2.013646
v 1.888650 -1.003832 -1.956552
v 1.074397 -0.964292 -1.682478
v 0.634286 -0.734475 -1.055005
v 0.140997 -0.159227 0.518654
v 0.240990 -0.094523 1.139131
v -1.256767 0.337115 1.100956
v -0.064109 0.711388 1.045934
v 0.796390 0.981424 1.006235
v 1.765399 1.023254 1.082518
v 1.765399 -0.031886 1.875767
v 0.796390 0.036405 1.991042
v -0.048403 0.075570 2.011546
v -1.219296 0.129853 2.039964
v -1.354557 0.136124 2.043247
v -1.394543 0.293879 1.107312
vt 0.302661 -0.749958
vt 0.301531 -0.742563
vt 0.288811 -0.746192
vt 0.290401 -0.755226
vt 0.281556 -0.759027
vt 0.279633 -0.748811
vt 0.269571 -0.751807
vt 0.270868 -0.759223
vt 0.511562 -0.556726
vt 0.466202 -0.582006
vt 0.412563 -0.608815
vt 0.436657 -0.577886
vt 0.422889 -0.531311
vt 0.402755 -0.543209
vt 0.459334 -0.557329
vt 0.503935 -0.549184
vt 0.513298 -0.551248
vt 0.465870 -0.558960
vt 0.472399 -0.578909
vt 0.520215 -0.554281
vt 0.382613 -0.593153
vt 0.373862 -0.628158
vt 0.325646 -0.626879
vt 0.320103 -0.614015
vt 0.318903 -0.573399
vt 0.302344 -0.526606
vt 0.361933 -0.533021
vt 0.364415 -0.518416
vt 0.458928 -0.603556
vt 0.414484 -0.621485
vt 0.410245 -0.591352
vt 0.455676 -0.578635
vt 0.460924 -0.577166
vt 0.464063 -0.601485
vt 0.382418 -0.634422
vt 0.335401 -0.637914
vt 0.331847 -0.612420
vt 0.377467 -0.600527
vt 0.408452 -0.689598
vt 0.375700 -0.701737
vt 0.372577 -0.681405
vt 0.406322 -0.674530
vt 0.410221 -0.673735
vt 0.412236 -0.688195
vt 0.352069 -0.710495
vt 0.323522 -0.712530
vt 0.321162 -0.697509
vt 0.348230 -0.686365
vt 0.372621 -0.726352
vt 0.344598 -0.737055
vt 0.341545 -0.717337
vt 0.370633 -0.712524
vt 0.373993 -0.711968
vt 0.375859 -0.725115
vt 0.324379 -0.744778
vt 0.299955 -0.746270
vt 0.297753 -0.732644
vt 0.320559 -0.720809
vt 0.303000 -0.742144
vt 0.304077 -0.749349
vn -0.203405 -0.320293 -0.925224
vn -0.152139 -0.470867 -0.868987
vn -0.167957 -0.379950 -0.909631
vn -0.125194 -0.471947 -0.872693
vn 0.010895 -0.537202 -0.843383
vn 0.175322 -0.498119 -0.849199
vn 0.025094 -0.516564 -0.855881
vn 0.149487 -0.464095 -0.873080
vn -0.046228 -0.998289 0.035795
vn -0.102328 -0.992292 0.069905
vn -0.080336 -0.990471 0.111863
vn -0.137029 -0.973965 0.180598
vn -0.122701 0.784215 -0.608237
vn -0.278539 0.871511 -0.403591
vn -0.183279 0.822932 -0.537765
vn -0.291924 0.877880 -0.379615
vn -0.211527 -0.824080 -0.525498
vn -0.256555 -0.915778 -0.309080
vn -0.268724 -0.935332 -0.230091
vn -0.279255 -0.948745 -0.147984
vn 0.141304 -0.948899 0.282176
vn 0.032576 -0.982392 0.183967
vn 0.038139 -0.981221 0.189077
vn -0.058190 -0.993351 0.099337
vn 0.973656 -0.025498 -0.226594
vn 0.916622 -0.212666 -0.338493
vn 0.949137 -0.126509 -0.288332
vn 0.880807 -0.284520 -0.378454
vn 0.081333 -0.031216 -0.996198
vn 0.080412 -0.026790 -0.996402
vn 0.081238 -0.030761 -0.996220
vn 0.079402 -0.021947 -0.996601
vn -0.176945 -0.963762 0.199631
vn -0.154915 -0.972272 0.175183
vn -0.154675 -0.979080 0.132200
vn -0.120828 -0.985123 0.122201
vn -0.071453 0.699625 -0.710928
vn -0.059408 0.715010 -0.696586
vn -0.066562 0.744354 -0.664460
vn -0.020052 0.798079 -0.602220
vn -0.958059 -0.039619 -0.283818
vn -0.986092 -0.118987 -0.116039
vn -0.986706 -0.123946 -0.105113
vn -0.987467 -0.133073 -0.084859
vn 0.088468 -0.996015 -0.011315
vn 0.125510 -0.991871 0.020982
vn 0.119918 -0.992653 0.016092
vn 0.155588 -0.986686 0.047367
vn 0.941355 -0.076272 -0.328686
vn 0.945367 -0.051223 -0.321960
vn 0.946775 -0.041297 -0.319236
vn 0.947517 -0.035751 -0.317700
vn 0.389409 0.724944 -0.568170
vn 0.230004 0.696267 -0.679934
vn 0.248941 0.700975 -0.668328
vn 0.102668 0.656384 -0.747408
vn -0.110044 -0.941727 0.317870
vn -0.091741 -0.943434 0.318614
vn -0.108316 -0.942754 0.315410
vn -0.088964 -0.945183 0.314188
vn -0.055359 0.913280 -0.403553
vn -0.048780 0.908580 -0.414854
vn -0.004506 0.912566 -0.408905
vn -0.000247 0.909814 -0.415016
vn -0.920739 -0.053945 -0.386433
vn -0.921788 -0.083230 -0.378655
vn -0.920792 -0.055016 -0.386155
vn -0.921870 -0.087466 -0.377499
vn 0.070565 -0.936580 0.343277
vn 0.064833 -0.936520 0.344568
vn 0.069617 -0.936572 0.343491
vn 0.061690 -0.936473 0.345271
vn 0.999010 0.015986 0.041506
vn 0.999015 0.015029 0.041742
vn 0.999026 0.010223 0.042926
vn 0.999026 0.009976 0.042987
vn 0.196604 0.901675 -0.385135
vn 0.155969 0.911784 -0.379899
vn 0.090895 0.924496 -0.370198
vn 0.077990 0.926516 -0.368084
vn -0.088420 -0.954676 0.284211
vn -0.091660 -0.954406 0.284092
vn -0.089187 -0.954357 0.285042
vn -0.092225 -0.953777 0.286014
vn -0.090057 0.913292 -0.397224
vn -0.086602 0.907500 -0.411028
vn -0.068358 0.911469 -0.405649
vn -0.063040 0.909193 -0.411574
vn -0.787135 -0.139217 -0.600864
vn -0.786550 -0.150442 -0.598922
vn -0.787074 -0.140486 -0.600649
vn -0.786457 -0.152055 -0.598636
vn 0.059335 -0.926746 0.370972
vn 0.060449 -0.926717 0.370866
vn 0.059743 -0.926736 0.370933
vn 0.061013 -0.926701 0.370813
vn 0.900387 0.156372 0.406018
vn 0.901497 0.166291 0.399564
vn 0.900574 0.157965 0.404986
vn 0.901694 0.168184 0.398324
vn 0.250124 0.938603 -0.237617
vn 0.226665 0.944653 -0.237179
vn 0.198478 0.951150 -0.236474
vn 0.180691 0.954824 -0.235930
vn -0.116535 -0.965633 -0.232320
vn -0.148082 -0.940008 -0.307340
vn -0.116849 -0.966249 -0.229585
vn -0.147071 -0.952000 -0.268453
vn -0.158690 0.533629 -0.830697
vn -0.164637 0.493349 -0.854109
vn -0.135057 0.562909 -0.815410
vn -0.134984 0.561002 -0.816735
vn -0.259168 -0.237776 -0.936106
vn -0.254839 -0.286673 -0.923513
vn -0.259039 -0.239360 -0.935738
vn -0.254076 -0.294528 -0.921249
vn 0.072399 -0.964120 0.255403
vn 0.080303 -0.961771 0.261817
vn 0.073041 -0.963933 0.255925
vn 0.084069 -0.960614 0.264866
vn 0.539846 0.327430 0.775472
vn 0.547771 0.373559 0.748599
vn 0.540755 0.332336 0.772746
vn 0.550513 0.391842 0.737153
vn 0.142560 0.973385 -0.179438
vn 0.173805 0.972816 -0.153041
vn 0.225534 0.968207 -0.108212
vn 0.231296 0.967402 -0.103130
vn -0.045731 -0.998679 0.023431
vn -0.177551 -0.982704 -0.052617
vn -0.176986 -0.962322 0.206428
vn -0.123482 -0.970750 0.205907
vn -0.110038 -0.941499 0.318547
vn -0.086030 -0.940828 0.327784
vn -0.088419 -0.954754 0.283948
vn -0.093229 -0.955294 0.280575
vn -0.116544 -0.965358 -0.233456
vn -0.152557 -0.912633 -0.379246
vn -0.205847 -0.297995 -0.932108
vn -0.124154 -0.322923 -0.938246
vn -0.182503 0.371274 -0.910411
vn -0.135013 0.560298 -0.817213
vn -0.098584 0.895215 -0.434594
vn -0.063093 0.908361 -0.413400
vn -0.063893 0.897407 -0.436553
vn -0.000296 0.909058 -0.416670
vn -0.043037 0.798686 -0.600206
vn -0.129913 0.797120 -0.589680
vn -0.294011 0.883168 -0.365475
vn -0.232645 0.933332 -0.273438
vn 0.173522 0.019161 -0.984644
vn -0.206307 0.587518 -0.782471
vn 0.069097 0.191066 -0.979142
vn -0.227712 0.614603 -0.755255
vn -0.073456 0.688206 -0.721787
vn -0.054831 0.696833 -0.715135
vn -0.061190 0.916413 -0.395528
vn -0.003802 0.917930 -0.396724
vn -0.094653 0.915430 -0.391189
vn -0.066249 0.918739 -0.389269
vn -0.161917 0.529937 -0.832436
vn -0.134470 0.576726 -0.805795
vn -0.116493 -0.971726 -0.205374
vn -0.150755 -0.950721 -0.270931
vn -0.088991 -0.953681 0.287356
vn -0.092893 -0.953459 0.286855
vn -0.108422 -0.944365 0.310515
vn -0.086566 -0.946460 0.310999
vn -0.154373 -0.982920 0.100185
vn -0.183039 -0.979754 0.081111
vn -0.084499 -0.975118 0.204953
vn -0.173520 -0.950123 0.259148
s 1
g polySurface9 pCylinder5
usemtl blinn2SG
f 36/2/1 45/3/2 35/1/3
f 35/1/3 45/3/2 46/4/4
f 27/6/5 30/7/6 25/5/7
f 25/5/7 30/7/6 29/8/8
s 3
f 58/9/9 31/10/10 57/12/11
f 57/12/11 31/10/10 50/11/12
s 4
f 41/14/13 40/15/14 52/13/15
f 52/13/15 40/15/14 51/16/16
s 5
f 4/18/17 2/19/18 60/17/19
f 60/17/19 2/19/18 59/20/20
s 6
f 1/22/21 5/23/22 56/21/23
f 56/21/23 5/23/22 55/24/24
s 7
f 5/23/25 6/25/26 55/24/27
f 55/24/27 6/25/26 54/26/28
s 8
f 6/25/29 3/27/30 54/26/31
f 54/26/31 3/27/30 53/28/32
s 9
f 31/10/33 32/29/34 50/11/35
f 50/11/35 32/29/34 49/30/36
s 10
f 41/14/37 42/31/38 40/15/39
f 40/15/39 42/31/38 39/32/40
s 11
f 10/33/41 8/34/42 4/18/43
f 4/18/43 8/34/42 2/19/44
s 12
f 7/35/45 11/36/46 1/22/47
f 1/22/47 11/36/46 5/23/48
s 13
f 11/36/49 12/37/50 5/23/51
f 5/23/51 12/37/50 6/25/52
s 14
f 6/25/53 12/37/54 3/27/55
f 3/27/55 12/37/54 9/38/56
s 15
f 32/29/57 33/39/58 49/30/59
f 49/30/59 33/39/58 48/40/60
s 16
f 43/41/61 38/42/62 42/31/63
f 42/31/63 38/42/62 39/32/64
s 17
f 10/33/65 16/43/66 8/34/67
f 8/34/67 16/43/66 14/44/68
s 18
f 7/35/69 13/45/70 11/36/71
f 11/36/71 13/45/70 17/46/72
s 19
f 17/46/73 18/47/74 11/36/75
f 11/36/75 18/47/74 12/37/76
s 20
f 18/47/77 15/48/78 12/37/79
f 12/37/79 15/48/78 9/38/80
s 21
f 33/39/81 34/49/82 48/40/83
f 48/40/83 34/49/82 47/50/84
s 22
f 44/51/85 37/52/86 43/41/87
f 43/41/87 37/52/86 38/42/88
s 23
f 16/43/89 22/53/90 14/44/91
f 14/44/91 22/53/90 20/54/92
s 24
f 13/45/93 19/55/94 17/46/95
f 17/46/95 19/55/94 23/56/96
s 25
f 17/46/97 23/56/98 18/47/99
f 18/47/99 23/56/98 24/57/100
s 26
f 24/57/101 21/58/102 18/47/103
f 18/47/103 21/58/102 15/48/104
s 27
f 34/49/105 35/1/106 47/50/107
f 47/50/107 35/1/106 46/4/108
s 28
f 45/3/109 36/2/110 44/51/111
f 44/51/111 36/2/110 37/52/112
s 29
f 22/53/113 28/59/114 20/54/115
f 20/54/115 28/59/114 26/60/116
s 30
f 19/55/117 25/5/118 23/56/119
f 23/56/119 25/5/118 29/8/120
s 31
f 23/56/121 29/8/122 24/57/123
f 24/57/123 29/8/122 30/7/124
s 32
f 30/7/125 27/6/126 24/57/127
f 24/57/127 27/6/126 21/58/128
s 3
f 59/20/129 2/19/130 58/9/9
f 58/9/9 2/19/130 31/10/10
s 9
f 2/19/131 8/34/132 31/10/33
f 31/10/33 8/34/132 32/29/34
s 15
f 8/34/133 14/44/134 32/29/57
f 32/29/57 14/44/134 33/39/58
s 21
f 14/44/135 20/54/136 33/39/81
f 33/39/81 20/54/136 34/49/82
s 27
f 20/54/137 26/60/138 34/49/105
f 34/49/105 26/60/138 35/1/106
s 1
f 28/59/139 36/2/1 26/60/140
f 26/60/140 36/2/1 35/1/3
s 28
f 36/2/110 28/59/141 37/52/112
f 37/52/112 28/59/141 22/53/142
s 22
f 37/52/86 22/53/143 38/42/88
f 38/42/88 22/53/143 16/43/144
s 16
f 38/42/62 16/43/145 39/32/64
f 39/32/64 16/43/145 10/33/146
s 10
f 39/32/40 10/33/147 40/15/39
f 40/15/39 10/33/147 4/18/148
s 4
f 60/17/149 51/16/16 4/18/150
f 4/18/150 51/16/16 40/15/14
s 33
f 3/27/151 41/14/152 53/28/153
f 53/28/153 41/14/152 52/13/154
s 10
f 3/27/155 9/38/156 41/14/37
f 41/14/37 9/38/156 42/31/38
s 16
f 15/48/157 43/41/61 9/38/158
f 9/38/158 43/41/61 42/31/63
s 22
f 21/58/159 44/51/85 15/48/160
f 15/48/160 44/51/85 43/41/87
s 28
f 27/6/161 45/3/109 21/58/162
f 21/58/162 45/3/109 44/51/111
s 1
f 46/4/4 45/3/2 25/5/7
f 25/5/7 45/3/2 27/6/5
s 27
f 47/50/107 46/4/108 19/55/163
f 19/55/163 46/4/108 25/5/164
s 21
f 48/40/83 47/50/84 13/45/165
f 13/45/165 47/50/84 19/55/166
s 15
f 49/30/59 48/40/60 7/35/167
f 7/35/167 48/40/60 13/45/168
s 9
f 49/30/36 7/35/169 50/11/35
f 50/11/35 7/35/169 1/22/170
s 3
f 57/12/11 50/11/12 56/21/171
f 56/21/171 50/11/12 1/22/172
