# This file uses centimeters as units for non-parametric coordinates.

v -0.343800 0.006252 0.037804
v -0.001908 -0.790791 0.037804
v -0.400762 -0.740353 0.037804
v -0.470007 -0.341249 0.037804
v -0.088941 0.122828 0.037804
v -0.218182 -0.763472 0.037804
v -0.001908 0.092342 -0.356533
v -0.048195 0.053766 -0.356533
v -0.304307 -0.060349 -0.356533
v -0.413635 -0.339852 -0.356533
v -0.356362 -0.598072 -0.356533
v -0.180507 -0.648075 -0.356533
v -0.001908 -0.696011 -0.356533
v -0.088941 0.394846 0.037804
v -0.098163 0.347400 0.208497
v -0.001908 0.417865 0.207688
v -0.048195 0.272383 -0.187121
v -0.001908 0.310958 -0.187121
v -0.059780 0.764476 -0.266627
v -0.098163 0.590487 0.042257
v -0.001908 0.830211 -0.266627
v -0.001908 0.660952 0.041447
v -0.048195 0.576927 -0.235078
v -0.001908 0.615503 -0.235078
v 0.339985 0.006252 0.037804
v 0.396946 -0.740353 0.037804
v 0.466192 -0.341249 0.037804
v 0.085126 0.122828 0.037804
v 0.214367 -0.763472 0.037804
v 0.044380 0.053766 -0.356533
v 0.300492 -0.060349 -0.356533
v 0.409820 -0.339852 -0.356533
v 0.352546 -0.598072 -0.356533
v 0.176692 -0.648075 -0.356533
v 0.085126 0.394846 0.037804
v 0.094347 0.347400 0.208497
v 0.044380 0.272383 -0.187121
v 0.055965 0.764476 -0.266627
v 0.094347 0.590487 0.042257
v 0.044380 0.576927 -0.235078
v -0.096983 0.124332 0.303993
v -0.098163 0.175845 0.312087
v -0.001908 0.230169 0.321024
v 0.094347 0.169464 0.315940
v 0.093123 0.124324 0.302529
v -0.002437 -0.830177 0.283529
v -0.226719 -0.775132 0.283230
v -0.409265 -0.740720 0.283312
v -0.480818 -0.346566 0.284925
v -0.351375 0.007770 0.285348
v -0.001380 -0.830091 0.282996
v 0.222885 -0.775106 0.282691
v 0.405431 -0.740719 0.282772
v 0.476979 -0.346554 0.284385
v 0.347543 0.007767 0.284808
vt 0.548176 0.406485
vt 0.548465 0.443487
vt 0.562500 0.443482
vt 0.562500 0.406485
vt 0.593750 0.443532
vt 0.593750 0.406485
vt 0.625000 0.443539
vt 0.625000 0.406485
vt 0.383721 0.452193
vt 0.406250 0.452193
vt 0.406250 0.406485
vt 0.383939 0.406485
vt 0.531250 0.406485
vt 0.531250 0.443573
vt 0.383939 0.406485
vt 0.406250 0.406485
vt 0.406250 0.346966
vt 0.385325 0.346966
vt 0.375000 0.406485
vt 0.383939 0.406485
vt 0.385325 0.346966
vt 0.375000 0.346966
vt 0.593750 0.346966
vt 0.625000 0.346966
vt 0.562500 0.346966
vt 0.546903 0.346966
vt 0.531250 0.346966
vt 0.383749 0.446343
vt 0.383721 0.452193
vt 0.383721 0.452193
vt 0.383939 0.406485
vt 0.406250 0.452193
vt 0.406250 0.452193
vt 0.383939 0.406485
vt 0.385325 0.346966
vt 0.406250 0.346966
vt 0.406250 0.346966
vt 0.383750 0.446124
vt 0.375000 0.443458
vt 0.375000 0.406485
vt 0.383939 0.406485
vt 0.383721 0.452193
vt 0.383939 0.406485
vt 0.406250 0.406485
vt 0.406250 0.452193
vt 0.383939 0.406485
vt 0.385325 0.346966
vt 0.406250 0.346966
vt 0.406250 0.406485
vt 0.375000 0.346966
vt 0.385325 0.346966
vt 0.593750 0.346966
vt 0.625000 0.346966
vt 0.625000 0.406485
vt 0.593750 0.406485
vt 0.562500 0.346966
vt 0.562500 0.406485
vt 0.546903 0.346966
vt 0.548176 0.406485
vt 0.531250 0.346966
vt 0.531250 0.406485
vt 0.383721 0.452193
vt 0.383939 0.406485
vt 0.383721 0.452193
vt 0.406250 0.452193
vt 0.406250 0.452193
vt 0.385325 0.346966
vt 0.383939 0.406485
vt 0.406250 0.346966
vt 0.406250 0.346966
vt 0.548465 0.443406
vt 0.531250 0.443492
vt 0.562500 0.443401
vt 0.593750 0.443451
vt 0.625000 0.443458
vt 0.375000 0.443539
vn -0.180606 -0.961414 -0.207520
vn -0.170411 -0.982848 -0.070502
vn -0.155584 -0.987379 -0.029587
vn -0.178086 -0.961062 -0.211297
vn -0.978205 -0.181124 -0.101536
vn -0.983814 -0.174538 -0.040585
vn -0.983814 -0.174538 -0.040585
vn -0.977396 -0.181780 -0.107948
vn -0.933337 0.346088 -0.095424
vn -0.939110 0.342098 -0.032278
vn -0.939110 0.342098 -0.032278
vn -0.933410 0.346056 -0.094818
vn -0.618711 0.702245 0.352205
vn -0.618711 0.702245 0.352205
vn -0.618711 0.702245 0.352205
vn -0.618711 0.702245 0.352205
vn -0.182073 -0.963175 -0.197845
vn -0.182686 -0.977552 -0.104969
vn 0.149250 -0.149035 -0.977504
vn 0.149250 -0.149035 -0.977504
vn 0.149250 -0.149035 -0.977503
vn 0.149250 -0.149035 -0.977503
vn -0.409935 0.903489 -0.125140
vn -0.409748 0.903231 -0.127593
vn -0.403599 0.893951 -0.194833
vn -0.403599 0.893951 -0.194833
vn -0.926719 0.348123 -0.141426
vn -0.926719 0.348123 -0.141426
vn -0.969657 -0.186636 -0.157898
vn -0.969657 -0.186636 -0.157898
vn -0.184852 -0.938772 -0.290752
vn -0.189195 -0.927402 -0.322692
vn -0.180702 -0.948187 -0.261319
vn -0.999145 -0.010679 -0.039929
vn -0.999145 -0.010679 -0.039929
vn -0.998296 -0.017352 -0.055707
vn -0.995523 -0.031489 -0.089124
vn -0.999146 -0.010679 -0.039929
vn -0.348006 0.484594 0.802534
vn -0.348006 0.484594 0.802534
vn -0.369184 0.513203 0.774807
vn -0.359997 0.500797 0.787149
vn -0.988070 0.050264 -0.145569
vn -0.986293 -0.004260 -0.164951
vn -0.987515 0.020653 -0.156163
vn -0.988070 0.050264 -0.145569
vn -0.454664 0.545564 -0.704018
vn -0.312641 0.375146 -0.872652
vn -0.061745 0.074090 -0.995338
vn -0.454664 0.545564 -0.704018
vn -0.991940 -0.044053 -0.118803
vn -0.991940 -0.044053 -0.118803
vn -0.376421 0.522974 0.764726
vn -0.376421 0.522974 0.764726
vn -0.981967 -0.052463 -0.181629
vn -0.981967 -0.052463 -0.181629
vn 0.128561 -0.154264 -0.979630
vn 0.128561 -0.154264 -0.979630
vn 0.415648 0.909348 -0.017985
vn 0.415648 0.909348 -0.017985
vn 0.409923 0.903472 -0.125305
vn 0.409736 0.903214 -0.127757
vn 0.618711 0.702245 0.352205
vn 0.618711 0.702245 0.352205
vn 0.618711 0.702245 0.352205
vn 0.618711 0.702245 0.352205
vn -0.149250 -0.149035 -0.977503
vn -0.149250 -0.149035 -0.977503
vn -0.149250 -0.149035 -0.977503
vn -0.149250 -0.149035 -0.977503
vn 0.403599 0.893951 -0.194833
vn 0.403599 0.893951 -0.194833
vn 0.926719 0.348123 -0.141426
vn 0.926719 0.348123 -0.141426
vn 0.933403 0.346058 -0.094877
vn 0.933330 0.346090 -0.095483
vn 0.969657 -0.186636 -0.157898
vn 0.969657 -0.186636 -0.157898
vn 0.977389 -0.181783 -0.108010
vn 0.978198 -0.181127 -0.101600
vn 0.184852 -0.938772 -0.290752
vn 0.189195 -0.927402 -0.322692
vn 0.178077 -0.961029 -0.211450
vn 0.180575 -0.961395 -0.207637
vn 0.180702 -0.948187 -0.261319
vn 0.182022 -0.963168 -0.197930
vn 0.999146 -0.010692 -0.039913
vn 0.999146 -0.010692 -0.039913
vn 0.999146 -0.010692 -0.039913
vn 0.995526 -0.031481 -0.089087
vn 0.998298 -0.017353 -0.055674
vn 0.348005 0.484594 0.802534
vn 0.348005 0.484594 0.802534
vn 0.359875 0.500632 0.787310
vn 0.369088 0.513074 0.774938
vn 0.988070 0.050264 -0.145569
vn 0.988070 0.050264 -0.145569
vn 0.987515 0.020653 -0.156163
vn 0.986293 -0.004260 -0.164951
vn 0.454664 0.545564 -0.704018
vn 0.454664 0.545564 -0.704018
vn 0.061745 0.074090 -0.995338
vn 0.312641 0.375146 -0.872652
vn 0.991940 -0.044053 -0.118803
vn 0.991940 -0.044053 -0.118803
vn 0.376421 0.522974 0.764726
vn 0.376421 0.522974 0.764726
vn 0.981967 -0.052463 -0.181629
vn 0.981967 -0.052463 -0.181629
vn -0.128561 -0.154264 -0.979630
vn -0.128561 -0.154264 -0.979630
vn 0.170315 -0.982865 -0.070500
vn 0.182563 -0.977575 -0.104969
vn 0.155519 -0.987390 -0.029585
vn 0.983815 -0.174530 -0.040585
vn 0.983815 -0.174530 -0.040585
vn 0.939110 0.342096 -0.032278
vn 0.939110 0.342096 -0.032278
vn -0.415647 0.909348 -0.017985
vn -0.415647 0.909348 -0.017985
f 6/1/1 47/2/2 48/3/3 3/4/4
f 3/4/5 48/3/6 49/5/7 4/6/8
f 4/6/9 49/5/10 50/7/11 1/8/12
f 20/9/13 22/10/14 21/11/15 19/12/16
f 2/13/17 46/14/18 47/2/2 6/1/1
f 19/15/19 21/16/20 24/17/21 23/18/22
f 1/19/23 5/20/24 8/21/25 9/22/26
f 10/23/27 4/6/9 1/8/12 9/24/28
f 11/25/29 3/4/5 4/6/8 10/23/30
f 12/26/31 6/1/1 3/4/4 11/25/32
f 13/27/33 2/13/17 6/1/1 12/26/31
f 41/28/34 42/29/35 15/30/36 14/31/37 5/20/38
f 42/29/39 43/32/40 16/33/41 15/30/42
f 5/20/43 14/34/44 17/35/45 8/21/46
f 8/21/47 17/35/48 18/36/49 7/37/50
f 15/30/36 20/9/51 19/12/52 14/31/37
f 16/33/41 22/10/53 20/9/54 15/30/42
f 14/34/44 19/15/55 23/18/56 17/35/45
f 17/35/48 23/18/57 24/17/58 18/36/49
f 45/38/59 55/39/60 25/40/61 28/41/62
f 39/42/63 38/43/64 21/44/65 22/45/66
f 38/46/67 40/47/68 24/48/69 21/49/70
f 25/40/61 31/50/71 30/51/72 28/41/62
f 32/52/73 31/53/74 25/54/75 27/55/76
f 33/56/77 32/52/78 27/55/79 26/57/80
f 34/58/81 33/56/82 26/57/83 29/59/84
f 13/60/85 34/58/81 29/59/84 2/61/86
f 44/62/87 45/38/88 28/41/89 35/63/90 36/64/91
f 43/65/92 44/62/93 36/64/94 16/66/95
f 28/41/96 30/51/97 37/67/98 35/68/99
f 30/51/100 7/69/101 18/70/102 37/67/103
f 36/64/91 35/63/90 38/43/104 39/42/105
f 16/66/95 36/64/94 39/42/106 22/45/107
f 35/68/99 37/67/98 40/47/108 38/46/109
f 37/67/103 18/70/102 24/48/110 40/47/111
f 2/61/86 29/59/84 52/71/112 51/72/113
f 29/59/84 26/57/83 53/73/114 52/71/112
f 26/57/80 27/55/79 54/74/115 53/73/116
f 27/55/76 25/54/75 55/75/117 54/74/118
f 50/76/119 41/28/120 5/20/24 1/19/23
