# This file uses centimeters as units for non-parametric coordinates.

v -0.363014 0.287002 -0.053840
v -0.001908 0.478736 -0.055713
v -0.001908 -0.570584 -0.059021
v -0.422363 -0.356803 -0.066640
v -0.497433 -0.077836 -0.054794
v -0.265115 0.403274 -0.054049
v -0.239865 -0.516186 -0.058342
v -0.001908 0.397976 0.408822
v -0.258118 0.334567 0.364233
v -0.357527 0.190372 0.352800
v -0.489601 -0.104725 0.301442
v -0.416194 -0.373079 0.307313
v -0.233292 -0.445795 0.334880
v -0.001908 -0.551393 0.403908
v -0.001908 0.471918 -0.377271
v -0.098163 0.401453 -0.376461
v -0.353145 0.285024 -0.376360
v -0.483345 -0.070908 -0.376824
v -0.411267 -0.463906 -0.378403
v -0.228727 -0.500974 -0.378549
v -0.001908 -0.562431 -0.378880
v 0.359199 0.287002 -0.053840
v 0.418548 -0.356803 -0.066640
v 0.493618 -0.077836 -0.054794
v 0.261299 0.403274 -0.054049
v 0.236050 -0.516186 -0.058342
v 0.254303 0.334567 0.364233
v 0.353712 0.190372 0.352800
v 0.485785 -0.104725 0.301442
v 0.412379 -0.373079 0.307313
v 0.229477 -0.445795 0.334880
v 0.094347 0.401453 -0.376461
v 0.349329 0.285024 -0.376360
v 0.479530 -0.070908 -0.376824
v 0.407452 -0.463906 -0.378403
v 0.224912 -0.500974 -0.378549
v -0.097493 0.401328 -0.398638
v -0.098163 0.432603 -0.395270
v -0.001908 0.491352 -0.389006
v 0.094347 0.434023 -0.396128
v 0.093446 0.401284 -0.406308
v -0.001909 -0.557700 -0.408393
v -0.227705 -0.499578 -0.407953
v -0.410248 -0.463862 -0.407840
v -0.482058 -0.070275 -0.406244
v -0.352244 0.284844 -0.405801
v 0.223859 -0.499536 -0.408822
v 0.406402 -0.463861 -0.408710
v 0.478205 -0.070257 -0.407113
v 0.348402 0.284838 -0.406670
vt 0.375000 0.452193
vt 0.383721 0.452193
vt 0.383737 0.448872
vt 0.375000 0.447786
vt 0.375000 0.570054
vt 0.383754 0.570054
vt 0.383490 0.500470
vt 0.375000 0.500470
vt 0.562500 0.500470
vt 0.562500 0.570054
vt 0.593750 0.570054
vt 0.593750 0.500470
vt 0.625000 0.570054
vt 0.625000 0.500470
vt 0.406250 0.570054
vt 0.406250 0.500470
vt 0.531250 0.500470
vt 0.531250 0.570054
vt 0.548679 0.570054
vt 0.548911 0.500470
vt 0.406250 0.452193
vt 0.593750 0.452193
vt 0.625000 0.452193
vt 0.562500 0.452193
vt 0.531250 0.452193
vt 0.548533 0.452193
vt 0.548498 0.447629
vt 0.562500 0.447626
vt 0.562500 0.452193
vt 0.548533 0.452193
vt 0.593750 0.447652
vt 0.593750 0.452193
vt 0.625000 0.447656
vt 0.625000 0.452193
vt 0.375000 0.570054
vt 0.375000 0.500470
vt 0.383490 0.500470
vt 0.383754 0.570054
vt 0.562500 0.500470
vt 0.593750 0.500470
vt 0.593750 0.570054
vt 0.562500 0.570054
vt 0.625000 0.500470
vt 0.625000 0.570054
vt 0.406250 0.500470
vt 0.406250 0.570054
vt 0.531250 0.500470
vt 0.548911 0.500470
vt 0.548679 0.570054
vt 0.531250 0.570054
vt 0.531250 0.447673
vt 0.531250 0.452193
vt 0.383721 0.452193
vt 0.406250 0.452193
vt 0.375000 0.452193
vt 0.383721 0.452193
vt 0.406250 0.452193
vt 0.383721 0.452193
vt 0.406250 0.452193
vt 0.383742 0.447724
vt 0.531250 0.447803
vt 0.548499 0.447760
vt 0.562500 0.447757
vt 0.593750 0.447782
vt 0.625000 0.447786
vt 0.375000 0.447656
vn -0.533114 0.834087 -0.141733
vn -0.441556 0.888961 -0.121557
vn -0.415326 0.909494 -0.018028
vn -0.415326 0.909494 -0.018028
vn -0.792933 0.595004 0.131255
vn -0.473713 0.866151 0.159306
vn -0.480657 0.876155 0.036339
vn -0.692103 0.721788 -0.004051
vn -0.972030 -0.234853 -0.001508
vn -0.965105 -0.261845 0.003027
vn -0.965105 -0.261845 0.003027
vn -0.971439 -0.237286 -0.001101
vn -0.933400 0.357876 0.026256
vn -0.926656 0.368191 0.075794
vn -0.926656 0.368191 0.075794
vn -0.934003 0.356665 0.020717
vn -0.267379 0.949720 0.162913
vn -0.307926 0.948958 0.068263
vn -0.296496 -0.954108 0.042048
vn -0.334120 -0.937144 0.100622
vn -0.334120 -0.937144 0.100622
vn -0.297365 -0.953778 0.043377
vn -0.374531 0.920732 -0.109451
vn -0.938262 0.344421 -0.032230
vn -0.938264 0.344417 -0.032230
vn -0.977725 -0.209682 -0.009351
vn -0.977565 -0.210459 -0.008537
vn -0.242803 -0.969039 -0.044836
vn -0.239898 -0.969802 -0.043974
vn 0.228647 -0.970854 -0.071854
vn 0.195341 -0.980252 -0.030783
vn 0.195341 -0.980252 -0.030783
vn 0.239821 -0.969821 -0.043963
vn 0.982898 -0.179622 -0.040584
vn 0.982898 -0.179622 -0.040584
vn 0.977584 -0.210369 -0.008630
vn 0.977747 -0.209573 -0.009463
vn 0.938676 0.343290 -0.032254
vn 0.938676 0.343290 -0.032254
vn 0.938265 0.344414 -0.032230
vn 0.938263 0.344418 -0.032230
vn 0.792933 0.595004 0.131255
vn 0.692103 0.721788 -0.004051
vn 0.480657 0.876155 0.036339
vn 0.473713 0.866151 0.159306
vn 0.972030 -0.234853 -0.001508
vn 0.971439 -0.237286 -0.001101
vn 0.965105 -0.261845 0.003027
vn 0.965105 -0.261845 0.003027
vn 0.933400 0.357875 0.026256
vn 0.934003 0.356665 0.020717
vn 0.926656 0.368191 0.075794
vn 0.926656 0.368191 0.075794
vn 0.307926 0.948958 0.068263
vn 0.267379 0.949720 0.162913
vn 0.296496 -0.954108 0.042048
vn 0.297365 -0.953778 0.043377
vn 0.334120 -0.937144 0.100622
vn 0.334120 -0.937144 0.100622
vn 0.254130 -0.961595 -0.103697
vn 0.242810 -0.969037 -0.044849
vn 0.441345 0.889192 -0.120636
vn 0.374531 0.920732 -0.109451
vn 0.531480 0.835438 -0.139903
vn -0.999382 -0.018169 -0.030089
vn -0.999382 -0.018169 -0.030089
vn -0.999382 -0.018169 -0.030089
vn -0.348006 0.484594 0.802534
vn -0.348006 0.484594 0.802534
vn -0.348006 0.484594 0.802534
vn -0.348006 0.484594 0.802534
vn 0.348005 0.484595 0.802534
vn 0.348005 0.484595 0.802534
vn 0.348005 0.484595 0.802534
vn 0.348005 0.484594 0.802534
vn 0.999382 -0.018169 -0.030089
vn 0.999382 -0.018169 -0.030089
vn 0.999382 -0.018169 -0.030089
vn -0.254201 -0.961500 -0.104404
vn -0.228979 -0.970723 -0.072560
vn -0.195444 -0.980232 -0.030786
vn -0.195444 -0.980232 -0.030786
vn -0.982896 -0.179635 -0.040585
vn -0.982896 -0.179635 -0.040585
vn -0.938674 0.343293 -0.032254
vn -0.938675 0.343293 -0.032254
vn 0.415332 0.909492 -0.017989
vn 0.415332 0.909492 -0.017989
f 17/1/1 16/2/2 37/3/3 46/4/4
f 10/5/5 9/6/6 6/7/7 1/8/8
f 4/9/9 12/10/10 11/11/11 5/12/12
f 5/12/13 11/11/14 10/13/15 1/14/16
f 9/6/6 8/15/17 2/16/18 6/7/7
f 3/17/19 14/18/20 13/19/21 7/20/22
f 6/7/7 2/16/18 15/21/23 16/2/2
f 1/8/8 6/7/7 16/2/2 17/1/1
f 18/22/24 5/12/13 1/14/16 17/23/25
f 19/24/26 4/9/9 5/12/12 18/22/27
f 21/25/28 3/17/19 7/20/22 20/26/29
f 47/27/30 48/28/31 35/29/32 36/30/33
f 48/28/34 49/31/35 34/32/36 35/29/37
f 49/31/38 50/33/39 33/34/40 34/32/41
f 28/35/42 22/36/43 25/37/44 27/38/45
f 23/39/46 24/40/47 29/41/48 30/42/49
f 24/40/50 22/43/51 28/44/52 29/41/53
f 27/38/45 25/37/44 2/45/54 8/46/55
f 3/47/56 26/48/57 31/49/58 14/50/59
f 42/51/60 47/27/30 36/30/33 21/52/61
f 25/37/44 32/53/62 15/54/63 2/45/54
f 22/36/43 33/55/64 32/53/62 25/37/44
f 34/32/41 33/34/40 22/43/51 24/40/50
f 35/29/37 34/32/36 24/40/47 23/39/46
f 21/52/61 36/30/33 26/48/57 3/47/56
f 16/2/65 38/56/66 37/3/67
f 15/21/68 39/57/69 38/56/70 16/2/71
f 15/54/72 32/53/73 40/58/74 39/59/75
f 32/53/76 41/60/77 40/58/78
f 42/61/79 21/25/28 20/26/29 43/62/80
f 44/63/81 43/62/80 20/26/29 19/24/82
f 45/64/83 44/63/84 19/24/26 18/22/27
f 46/65/85 45/64/86 18/22/24 17/23/25
f 33/55/64 50/66/87 41/60/88 32/53/62
