# This file uses centimeters as units for non-parametric coordinates.

v 0.077990 -0.067916 -0.056046
v 0.196458 -0.004396 -0.058621
v 0.157827 -0.003094 0.142260
v -0.016413 -0.036031 0.244399
v 0.191307 -0.044235 -0.215721
v 0.121772 -0.061026 -0.218296
v 0.580193 -0.174362 -0.336765
v 0.624372 -0.146318 -0.346705
v 0.544137 -0.139700 -0.164213
v 0.484903 -0.156467 -0.151336
v 0.562165 -0.172756 -0.416602
v 0.518383 -0.189547 -0.383122
v -0.620471 0.101707 0.416602
v -0.438263 0.173690 0.387588
v -0.431258 0.189547 0.017312
v -0.441998 0.083848 -0.291088
v -0.624372 0.047560 -0.291515
v -0.613263 0.032360 0.025591
vt 0.548911 0.500470
vt 0.562500 0.500470
vt 0.562500 0.570054
vt 0.548679 0.570054
vt 0.548533 0.452193
vt 0.562500 0.452193
vt 0.562500 0.500470
vt 0.548911 0.500470
vt 0.548911 0.500470
vt 0.562500 0.500470
vt 0.562500 0.570054
vt 0.548679 0.570054
vt 0.548533 0.452193
vt 0.562500 0.452193
vt 0.562500 0.500470
vt 0.548911 0.500470
vt 0.562500 0.570054
vt 0.548679 0.570054
vt 0.562500 0.500470
vt 0.562500 0.452193
vt 0.562500 0.500470
vt 0.548533 0.452193
vt 0.548911 0.500470
vt 0.548911 0.500470
vn 0.431907 -0.862563 0.263518
vn 0.431907 -0.862563 0.263518
vn 0.431907 -0.862563 0.263518
vn 0.431907 -0.862563 0.263518
vn 0.407608 -0.906475 -0.110269
vn 0.407608 -0.906475 -0.110269
vn 0.407608 -0.906475 -0.110269
vn 0.407608 -0.906475 -0.110269
vn -0.346621 0.507922 -0.788587
vn -0.346621 0.507922 -0.788587
vn -0.346621 0.507922 -0.788587
vn -0.346621 0.507922 -0.788587
vn 0.336174 0.939224 0.069603
vn 0.311202 0.948786 0.054400
vn 0.387343 0.916368 0.101167
vn 0.387343 0.916368 0.101167
vn 0.450066 -0.345325 0.823524
vn 0.348956 -0.000128 0.937139
vn 0.469853 -0.450827 0.758942
vn 0.469852 -0.450827 0.758942
vn -0.161942 -0.980635 0.110133
vn -0.180907 -0.980758 0.073395
vn -0.208391 -0.977864 0.018826
vn -0.208391 -0.977864 0.018826
vn 0.024283 -0.193881 -0.980725
vn -0.226057 0.140319 -0.963955
vn -0.330836 0.289906 -0.898055
vn -0.330836 0.289906 -0.898055
vn 0.202744 0.931358 -0.302437
vn 0.217967 0.928658 -0.300143
vn 0.127331 0.941305 -0.312622
vn 0.127331 0.941305 -0.312622
vn 0.346621 -0.507922 0.788587
vn 0.346621 -0.507922 0.788587
vn 0.346621 -0.507922 0.788587
vn 0.346621 -0.507922 0.788587
vn -0.152938 -0.987300 -0.042995
vn -0.169365 -0.985342 -0.020419
vn -0.225411 -0.972527 0.058149
vn -0.225412 -0.972527 0.058149
vn 0.336308 0.033903 0.941142
vn 0.336308 0.033903 0.941142
vn 0.301180 0.952342 0.048334
vn 0.301180 0.952342 0.048334
vn 0.236116 0.925128 -0.297301
vn 0.236115 0.925128 -0.297301
vn 0.062655 -0.242602 -0.968101
vn 0.062655 -0.242602 -0.968100
vn -0.143893 -0.988045 -0.055342
vn -0.143893 -0.988045 -0.055342
vn -0.156512 -0.980295 0.120519
vn -0.156512 -0.980295 0.120519
f 7/1/1 8/2/2 9/3/3 10/4/4
f 12/5/5 11/6/6 8/7/7 7/8/8
f 1/9/9 2/10/10 8/2/11 7/1/12
f 2/10/13 3/11/14 9/3/15 8/2/16
f 3/11/17 4/12/18 10/4/19 9/3/20
f 4/12/21 1/9/22 7/1/23 10/4/24
f 6/13/25 5/14/26 11/6/27 12/5/28
f 5/14/29 2/15/30 8/7/31 11/6/32
f 2/15/33 1/16/34 7/8/35 8/7/36
f 1/16/37 6/13/38 12/5/39 7/8/40
f 14/17/41 13/18/42 4/12/18 3/11/17
f 15/19/43 14/17/44 3/11/14 2/10/13
f 16/20/45 15/21/46 2/15/30 5/14/29
f 17/22/47 16/20/48 5/14/26 6/13/25
f 18/23/49 17/22/50 6/13/38 1/16/37
f 13/18/51 18/24/52 1/9/22 4/12/21
