# This file uses centimeters as units for non-parametric coordinates.

v -0.078305 -0.068010 -0.056132
v -0.196773 -0.004489 -0.058707
v -0.158142 -0.003188 0.142174
v 0.016097 -0.036125 0.244313
v -0.191622 -0.044329 -0.215806
v -0.122087 -0.061120 -0.218382
v -0.580508 -0.174456 -0.336850
v -0.624687 -0.146412 -0.346790
v -0.544453 -0.139794 -0.164298
v -0.485218 -0.156561 -0.151421
v -0.562480 -0.172850 -0.416688
v -0.518699 -0.189641 -0.383208
v 0.620757 0.101750 0.416688
v 0.613577 0.032357 0.025580
v 0.624687 0.047558 -0.291662
v 0.442306 0.083880 -0.291248
v 0.431551 0.189641 0.017299
v 0.438518 0.173765 0.387737
vt 0.548911 0.500470
vt 0.548679 0.570054
vt 0.562500 0.570054
vt 0.562500 0.500470
vt 0.548533 0.452193
vt 0.548911 0.500470
vt 0.562500 0.500470
vt 0.562500 0.452193
vt 0.548911 0.500470
vt 0.562500 0.500470
vt 0.562500 0.570054
vt 0.548679 0.570054
vt 0.548533 0.452193
vt 0.562500 0.452193
vt 0.562500 0.500470
vt 0.548911 0.500470
vt 0.548679 0.570054
vt 0.548911 0.500470
vt 0.548533 0.452193
vt 0.548911 0.500470
vt 0.562500 0.452193
vt 0.562500 0.500470
vt 0.562500 0.570054
vt 0.562500 0.500470
vn -0.431908 -0.862562 0.263518
vn -0.431908 -0.862562 0.263518
vn -0.431908 -0.862562 0.263518
vn -0.431908 -0.862562 0.263518
vn -0.407607 -0.906475 -0.110270
vn -0.407607 -0.906475 -0.110270
vn -0.407607 -0.906475 -0.110270
vn -0.407607 -0.906475 -0.110270
vn 0.346621 0.507922 -0.788587
vn 0.346621 0.507922 -0.788587
vn 0.346621 0.507922 -0.788587
vn 0.346621 0.507922 -0.788587
vn -0.336148 0.939235 0.069585
vn -0.387343 0.916368 0.101167
vn -0.387343 0.916368 0.101167
vn -0.311190 0.948790 0.054390
vn -0.450013 -0.345305 0.823561
vn -0.469853 -0.450827 0.758942
vn -0.469853 -0.450827 0.758942
vn -0.348864 -0.000425 0.937173
vn 0.161927 -0.980631 0.110193
vn 0.208391 -0.977864 0.018826
vn 0.208391 -0.977864 0.018826
vn 0.180887 -0.980757 0.073453
vn -0.024321 -0.193977 -0.980705
vn 0.330836 0.289906 -0.898055
vn 0.330836 0.289906 -0.898055
vn 0.225956 0.140160 -0.964002
vn -0.202773 0.931345 -0.302455
vn -0.127331 0.941305 -0.312622
vn -0.127331 0.941305 -0.312622
vn -0.217984 0.928646 -0.300167
vn -0.346621 -0.507922 0.788587
vn -0.346621 -0.507922 0.788587
vn -0.346621 -0.507922 0.788587
vn -0.346621 -0.507922 0.788587
vn 0.152929 -0.987302 -0.042994
vn 0.225412 -0.972527 0.058149
vn 0.225412 -0.972527 0.058149
vn 0.169345 -0.985345 -0.020437
vn 0.156501 -0.980290 0.120575
vn 0.156501 -0.980290 0.120575
vn 0.143893 -0.988046 -0.055326
vn 0.143893 -0.988045 -0.055326
vn -0.062647 -0.242643 -0.968091
vn -0.062647 -0.242643 -0.968091
vn -0.236113 0.925118 -0.297333
vn -0.236113 0.925118 -0.297333
vn -0.301179 0.952342 0.048331
vn -0.301179 0.952342 0.048331
vn -0.336228 0.033547 0.941183
vn -0.336228 0.033547 0.941183
f 7/1/1 10/2/2 9/3/3 8/4/4
f 12/5/5 7/6/6 8/7/7 11/8/8
f 1/9/9 7/1/10 8/4/11 2/10/12
f 2/10/13 8/4/14 9/3/15 3/11/16
f 3/11/17 9/3/18 10/2/19 4/12/20
f 4/12/21 10/2/22 7/1/23 1/9/24
f 6/13/25 12/5/26 11/8/27 5/14/28
f 5/14/29 11/8/30 8/7/31 2/15/32
f 2/15/33 8/7/34 7/6/35 1/16/36
f 1/16/37 7/6/38 12/5/39 6/13/40
f 13/17/41 4/12/21 1/9/24 14/18/42
f 15/19/43 14/20/44 1/16/37 6/13/40
f 16/21/45 15/19/46 6/13/25 5/14/28
f 17/22/47 16/21/48 5/14/29 2/15/32
f 18/23/49 17/24/50 2/10/13 3/11/16
f 13/17/51 18/23/52 3/11/17 4/12/20
